<svg width="23" height="23" viewBox="0 0 23 23" fill="none" xmlns="http://www.w3.org/2000/svg">
<rect width="23" height="23" rx="11.5" fill="#FCFCFC"/>
<path d="M9.10479 11.5C9.10479 10.1769 10.1771 9.10397 11.5002 9.10397C12.8234 9.10397 13.8963 10.1769 13.8963 11.5C13.8963 12.8231 12.8234 13.896 11.5002 13.896C10.1771 13.896 9.10479 12.8231 9.10479 11.5ZM7.80955 11.5C7.80955 13.5384 9.46187 15.1907 11.5002 15.1907C13.5386 15.1907 15.1909 13.5384 15.1909 11.5C15.1909 9.46163 13.5386 7.80931 11.5002 7.80931C9.46187 7.80931 7.80955 9.46163 7.80955 11.5ZM14.4745 7.66297C14.4745 7.83355 14.525 8.00033 14.6197 8.1422C14.7144 8.28408 14.8491 8.39468 15.0067 8.46003C15.1642 8.52537 15.3377 8.54252 15.505 8.50931C15.6723 8.47609 15.826 8.39401 15.9467 8.27344C16.0674 8.15286 16.1496 7.99921 16.1829 7.83192C16.2163 7.66462 16.1992 7.49119 16.134 7.33357C16.0688 7.17594 15.9583 7.04119 15.8165 6.94636C15.6747 6.85153 15.508 6.80088 15.3374 6.80081H15.337C15.1084 6.80092 14.8891 6.89178 14.7274 7.05343C14.5657 7.21508 14.4747 7.43431 14.4745 7.66297ZM8.59649 17.3505C7.89574 17.3185 7.51486 17.2018 7.26175 17.1032C6.92618 16.9726 6.68675 16.817 6.43501 16.5656C6.18328 16.3142 6.02745 16.075 5.89739 15.7394C5.79872 15.4864 5.68199 15.1054 5.65014 14.4047C5.61529 13.647 5.60833 13.4195 5.60833 11.5001C5.60833 9.58065 5.61587 9.3537 5.65014 8.59545C5.68205 7.89469 5.79964 7.51444 5.89739 7.2607C6.02803 6.92513 6.18362 6.6857 6.43501 6.43396C6.6864 6.18223 6.9256 6.0264 7.26175 5.89634C7.51475 5.79767 7.89574 5.68094 8.59649 5.64909C9.35411 5.61424 9.5817 5.60728 11.5002 5.60728C13.4188 5.60728 13.6466 5.61482 14.4049 5.64909C15.1056 5.681 15.4859 5.79859 15.7396 5.89634C16.0752 6.0264 16.3146 6.18257 16.5663 6.43396C16.8181 6.68535 16.9733 6.92513 17.104 7.2607C17.2026 7.5137 17.3194 7.89469 17.3512 8.59545C17.3861 9.3537 17.393 9.58065 17.393 11.5001C17.393 13.4195 17.3861 13.6464 17.3512 14.4047C17.3193 15.1054 17.202 15.4863 17.104 15.7394C16.9733 16.075 16.8177 16.3144 16.5663 16.5656C16.3149 16.8167 16.0752 16.9726 15.7396 17.1032C15.4866 17.2019 15.1056 17.3186 14.4049 17.3505C13.6472 17.3853 13.4197 17.3923 11.5002 17.3923C9.58084 17.3923 9.35388 17.3853 8.59649 17.3505ZM8.53698 4.35603C7.77183 4.39087 7.24898 4.5122 6.79237 4.68987C6.31949 4.87335 5.91918 5.11951 5.51915 5.51891C5.11912 5.9183 4.8736 6.31925 4.69012 6.79213C4.51244 7.24902 4.39112 7.77158 4.35627 8.53674C4.32085 9.3031 4.31274 9.54811 4.31274 11.5C4.31274 13.4519 4.32085 13.6969 4.35627 14.4633C4.39112 15.2285 4.51244 15.751 4.69012 16.2079C4.8736 16.6805 5.11918 17.0819 5.51915 17.4811C5.91912 17.8803 6.31949 18.1261 6.79237 18.3101C7.24984 18.4878 7.77183 18.6091 8.53698 18.644C9.30374 18.6788 9.54835 18.6875 11.5002 18.6875C13.4521 18.6875 13.6971 18.6794 14.4635 18.644C15.2287 18.6091 15.7512 18.4878 16.2081 18.3101C16.6807 18.1261 17.0813 17.8805 17.4813 17.4811C17.8814 17.0817 18.1264 16.6805 18.3104 16.2079C18.488 15.751 18.6099 15.2284 18.6442 14.4633C18.6791 13.6963 18.6872 13.4519 18.6872 11.5C18.6872 9.54811 18.6791 9.3031 18.6442 8.53674C18.6094 7.77153 18.488 7.24874 18.3104 6.79213C18.1264 6.31954 17.8807 5.91893 17.4813 5.51891C17.0819 5.11888 16.6807 4.87335 16.2087 4.68987C15.7512 4.5122 15.2287 4.3903 14.4641 4.35603C13.6977 4.32118 13.4527 4.3125 11.5008 4.3125C9.54892 4.3125 9.30374 4.32061 8.53698 4.35603Z" fill="#060693"/>
</svg>
