<svg width="23" height="23" viewBox="0 0 23 23" fill="none" xmlns="http://www.w3.org/2000/svg">
<rect width="23" height="23" rx="11.5" fill="#FCFCFC"/>
<path d="M5.16895 11.2467C8.5132 9.759 10.7432 8.77824 11.859 8.30438C15.0449 6.95144 15.7068 6.71641 16.1383 6.70857C16.2332 6.70695 16.4454 6.73096 16.5828 6.84483C16.6989 6.94098 16.7308 7.07087 16.7461 7.16203C16.7614 7.25319 16.7804 7.46086 16.7653 7.62313C16.5927 9.47521 15.8456 13.9697 15.4656 16.0441C15.3048 16.9218 14.9882 17.2161 14.6816 17.2449C14.0154 17.3075 13.5096 16.7954 12.8643 16.3636C11.8547 15.6878 11.2843 15.2672 10.3042 14.6077C9.17158 13.8457 9.90581 13.4268 10.5513 12.7423C10.7202 12.5632 13.6554 9.83723 13.7123 9.58995C13.7194 9.55902 13.726 9.44374 13.6589 9.38287C13.5918 9.32199 13.4928 9.34281 13.4214 9.35936C13.3201 9.38283 11.7071 10.4713 8.58251 12.6249C8.12468 12.9459 7.70999 13.1023 7.33844 13.0941C6.92884 13.085 6.14093 12.8576 5.5552 12.6632C4.83678 12.4248 4.2658 12.2987 4.31552 11.8938C4.34142 11.6829 4.62589 11.4672 5.16895 11.2467Z" fill="#060693"/>
</svg>
