<svg width="23" height="23" viewBox="0 0 23 23" fill="none" xmlns="http://www.w3.org/2000/svg">
<rect width="23" height="23" rx="11.5" fill="#FCFCFC"/>
<path d="M16.6514 6.33067C15.4185 5.06152 13.7143 4.37256 11.9737 4.37256C8.27506 4.37256 5.30164 7.38224 5.3379 11.0446C5.3379 12.205 5.66425 13.3291 6.20817 14.3444L5.26538 17.7892L8.78272 16.8827C9.76178 17.4266 10.8496 17.6804 11.9375 17.6804C15.5998 17.6804 18.5733 14.6708 18.5733 11.0084C18.5733 9.23157 17.8843 7.56355 16.6514 6.33067ZM11.9737 16.5563C10.9947 16.5563 10.0156 16.3025 9.1816 15.7949L8.96403 15.6861L6.86088 16.23L7.40479 14.1631L7.25975 13.9455C5.66425 11.371 6.42574 7.96242 9.03655 6.36693C11.6474 4.77143 15.0197 5.53292 16.6152 8.14373C18.2106 10.7545 17.4492 14.1268 14.8384 15.7223C14.0043 16.2663 12.989 16.5563 11.9737 16.5563ZM15.1647 12.5313L14.7658 12.35C14.7658 12.35 14.1856 12.0962 13.823 11.9149C13.7868 11.9149 13.7505 11.8786 13.7143 11.8786C13.6055 11.8786 13.5329 11.9149 13.4604 11.9512C13.4604 11.9512 13.4242 11.9874 12.9165 12.5676C12.8802 12.6401 12.8077 12.6764 12.7352 12.6764H12.6989C12.6627 12.6764 12.5902 12.6401 12.5539 12.6039L12.3726 12.5313C11.9737 12.35 11.6111 12.1325 11.321 11.8424C11.2485 11.7699 11.1397 11.6973 11.0672 11.6248C10.8134 11.371 10.5595 11.0809 10.3782 10.7545L10.342 10.682C10.3057 10.6458 10.3057 10.6095 10.2694 10.537C10.2694 10.4645 10.2694 10.3919 10.3057 10.3557C10.3057 10.3557 10.4507 10.1744 10.5595 10.0656C10.632 9.99305 10.6683 9.88427 10.7408 9.81175C10.8134 9.70296 10.8496 9.55792 10.8134 9.44913C10.7771 9.26783 10.342 8.28877 10.2332 8.07121C10.1607 7.96242 10.0881 7.92616 9.97934 7.8899H9.87056C9.79804 7.8899 9.68925 7.8899 9.58047 7.8899C9.50795 7.8899 9.43543 7.92616 9.3629 7.92616L9.32664 7.96242C9.25412 7.99868 9.1816 8.07121 9.10907 8.10747C9.03655 8.17999 9.00029 8.25251 8.92777 8.32504C8.67394 8.65139 8.52889 9.05026 8.52889 9.44913C8.52889 9.73923 8.60142 10.0293 8.7102 10.2831L8.74646 10.3919C9.07281 11.0809 9.50795 11.6973 10.0881 12.2413L10.2332 12.3863C10.342 12.4951 10.4507 12.5676 10.5233 12.6764C11.2847 13.3291 12.155 13.8005 13.1341 14.0543C13.2429 14.0906 13.3879 14.0906 13.4967 14.1268C13.6055 14.1268 13.7505 14.1268 13.8593 14.1268C14.0406 14.1268 14.2582 14.0543 14.4032 13.9818C14.512 13.9093 14.5845 13.9093 14.657 13.8367L14.7296 13.7642C14.8021 13.6917 14.8746 13.6554 14.9471 13.5829C15.0197 13.5104 15.0922 13.4379 15.1284 13.3654C15.201 13.2203 15.2372 13.039 15.2735 12.8577C15.2735 12.7852 15.2735 12.6764 15.2735 12.6039C15.2735 12.6039 15.2372 12.5676 15.1647 12.5313Z" fill="#060693"/>
</svg>
