<svg width="22" height="23" viewBox="0 0 22 23" fill="none" xmlns="http://www.w3.org/2000/svg">
<rect width="22" height="23" rx="11" fill="#FCFCFC"/>
<path fill-rule="evenodd" clip-rule="evenodd" d="M16.3799 6.77564C16.9689 6.94141 17.4332 7.42689 17.5918 8.04262C17.8863 9.16752 17.8749 11.512 17.8749 11.512C17.8749 11.512 17.8749 13.8447 17.5918 14.9696C17.4332 15.5853 16.9689 16.0708 16.3799 16.2366C15.3039 16.5326 11 16.5326 11 16.5326C11 16.5326 6.70736 16.5326 5.62005 16.2247C5.03109 16.059 4.56672 15.5735 4.40815 14.9578C4.125 13.8447 4.125 11.5002 4.125 11.5002C4.125 11.5002 4.125 9.16752 4.40815 8.04262C4.56672 7.42689 5.04242 6.92957 5.62005 6.7638C6.69604 6.46777 11 6.46777 11 6.46777C11 6.46777 15.3039 6.46777 16.3799 6.77564ZM13.2086 11.5002L9.62954 13.6552V9.34511L13.2086 11.5002Z" fill="#060693"/>
</svg>
