<svg width="49" height="49" viewBox="0 0 49 49" fill="none" xmlns="http://www.w3.org/2000/svg">
<g filter="url(#filter0_f)">
<mask id="path-1-inside-1" fill="white">
<path fill-rule="evenodd" clip-rule="evenodd" d="M17.5385 29.4615C18.643 29.4615 19.5385 30.357 19.5385 31.4615V44C19.5385 45.1046 20.4339 46 21.5385 46H27.4615C28.5661 46 29.4615 45.1046 29.4615 44V31.4615C29.4615 30.357 30.357 29.4615 31.4615 29.4615H44C45.1046 29.4615 46 28.5661 46 27.4615V21.5385C46 20.4339 45.1046 19.5385 44 19.5385H31.4615C30.357 19.5385 29.4615 18.643 29.4615 17.5385V5C29.4615 3.89543 28.5661 3 27.4615 3H21.5385C20.4339 3 19.5385 3.89543 19.5385 5V17.5385C19.5385 18.643 18.643 19.5385 17.5385 19.5385H5C3.89543 19.5385 3 20.4339 3 21.5385V27.4615C3 28.5661 3.89543 29.4615 5 29.4615H17.5385Z"/>
</mask>
<path d="M20.5385 44V31.4615H18.5385V44H20.5385ZM27.4615 45H21.5385V47H27.4615V45ZM28.4615 31.4615V44H30.4615V31.4615H28.4615ZM44 28.4615H31.4615V30.4615H44V28.4615ZM45 21.5385V27.4615H47V21.5385H45ZM31.4615 20.5385H44V18.5385H31.4615V20.5385ZM28.4615 5V17.5385H30.4615V5H28.4615ZM21.5385 4H27.4615V2H21.5385V4ZM20.5385 17.5385V5H18.5385V17.5385H20.5385ZM5 20.5385H17.5385V18.5385H5V20.5385ZM4 27.4615V21.5385H2V27.4615H4ZM17.5385 28.4615H5V30.4615H17.5385V28.4615ZM2 27.4615C2 29.1184 3.34314 30.4615 5 30.4615V28.4615C4.44771 28.4615 4 28.0138 4 27.4615H2ZM5 18.5385C3.34314 18.5385 2 19.8816 2 21.5385H4C4 20.9862 4.44772 20.5385 5 20.5385V18.5385ZM18.5385 17.5385C18.5385 18.0908 18.0908 18.5385 17.5385 18.5385V20.5385C19.1953 20.5385 20.5385 19.1953 20.5385 17.5385H18.5385ZM21.5385 2C19.8816 2 18.5385 3.34314 18.5385 5H20.5385C20.5385 4.44771 20.9862 4 21.5385 4V2ZM30.4615 5C30.4615 3.34314 29.1184 2 27.4615 2V4C28.0138 4 28.4615 4.44772 28.4615 5H30.4615ZM31.4615 18.5385C30.9093 18.5385 30.4615 18.0908 30.4615 17.5385H28.4615C28.4615 19.1953 29.8047 20.5385 31.4615 20.5385V18.5385ZM47 21.5385C47 19.8816 45.6569 18.5385 44 18.5385V20.5385C44.5523 20.5385 45 20.9862 45 21.5385H47ZM44 30.4615C45.6569 30.4615 47 29.1184 47 27.4615H45C45 28.0138 44.5523 28.4615 44 28.4615V30.4615ZM30.4615 31.4615C30.4615 30.9093 30.9093 30.4615 31.4615 30.4615V28.4615C29.8047 28.4615 28.4615 29.8047 28.4615 31.4615H30.4615ZM27.4615 47C29.1184 47 30.4615 45.6569 30.4615 44H28.4615C28.4615 44.5523 28.0138 45 27.4615 45V47ZM20.5385 31.4615C20.5385 29.8047 19.1953 28.4615 17.5385 28.4615V30.4615C18.0908 30.4615 18.5385 30.9093 18.5385 31.4615H20.5385ZM18.5385 44C18.5385 45.6569 19.8816 47 21.5385 47V45C20.9862 45 20.5385 44.5523 20.5385 44H18.5385Z" fill="url(#paint0_linear)" mask="url(#path-1-inside-1)"/>
</g>
<mask id="path-3-inside-2" fill="white">
<path fill-rule="evenodd" clip-rule="evenodd" d="M17.5385 29.4615C18.643 29.4615 19.5385 30.357 19.5385 31.4615V44C19.5385 45.1046 20.4339 46 21.5385 46H27.4615C28.5661 46 29.4615 45.1046 29.4615 44V31.4615C29.4615 30.357 30.357 29.4615 31.4615 29.4615H44C45.1046 29.4615 46 28.5661 46 27.4615V21.5385C46 20.4339 45.1046 19.5385 44 19.5385H31.4615C30.357 19.5385 29.4615 18.643 29.4615 17.5385V5C29.4615 3.89543 28.5661 3 27.4615 3H21.5385C20.4339 3 19.5385 3.89543 19.5385 5V17.5385C19.5385 18.643 18.643 19.5385 17.5385 19.5385H5C3.89543 19.5385 3 20.4339 3 21.5385V27.4615C3 28.5661 3.89543 29.4615 5 29.4615H17.5385Z"/>
</mask>
<path d="M20.5385 44V31.4615H18.5385V44H20.5385ZM27.4615 45H21.5385V47H27.4615V45ZM28.4615 31.4615V44H30.4615V31.4615H28.4615ZM44 28.4615H31.4615V30.4615H44V28.4615ZM45 21.5385V27.4615H47V21.5385H45ZM31.4615 20.5385H44V18.5385H31.4615V20.5385ZM28.4615 5V17.5385H30.4615V5H28.4615ZM21.5385 4H27.4615V2H21.5385V4ZM20.5385 17.5385V5H18.5385V17.5385H20.5385ZM5 20.5385H17.5385V18.5385H5V20.5385ZM4 27.4615V21.5385H2V27.4615H4ZM17.5385 28.4615H5V30.4615H17.5385V28.4615ZM2 27.4615C2 29.1184 3.34314 30.4615 5 30.4615V28.4615C4.44771 28.4615 4 28.0138 4 27.4615H2ZM5 18.5385C3.34314 18.5385 2 19.8816 2 21.5385H4C4 20.9862 4.44772 20.5385 5 20.5385V18.5385ZM18.5385 17.5385C18.5385 18.0908 18.0908 18.5385 17.5385 18.5385V20.5385C19.1953 20.5385 20.5385 19.1953 20.5385 17.5385H18.5385ZM21.5385 2C19.8816 2 18.5385 3.34314 18.5385 5H20.5385C20.5385 4.44771 20.9862 4 21.5385 4V2ZM30.4615 5C30.4615 3.34314 29.1184 2 27.4615 2V4C28.0138 4 28.4615 4.44772 28.4615 5H30.4615ZM31.4615 18.5385C30.9093 18.5385 30.4615 18.0908 30.4615 17.5385H28.4615C28.4615 19.1953 29.8047 20.5385 31.4615 20.5385V18.5385ZM47 21.5385C47 19.8816 45.6569 18.5385 44 18.5385V20.5385C44.5523 20.5385 45 20.9862 45 21.5385H47ZM44 30.4615C45.6569 30.4615 47 29.1184 47 27.4615H45C45 28.0138 44.5523 28.4615 44 28.4615V30.4615ZM30.4615 31.4615C30.4615 30.9093 30.9093 30.4615 31.4615 30.4615V28.4615C29.8047 28.4615 28.4615 29.8047 28.4615 31.4615H30.4615ZM27.4615 47C29.1184 47 30.4615 45.6569 30.4615 44H28.4615C28.4615 44.5523 28.0138 45 27.4615 45V47ZM20.5385 31.4615C20.5385 29.8047 19.1953 28.4615 17.5385 28.4615V30.4615C18.0908 30.4615 18.5385 30.9093 18.5385 31.4615H20.5385ZM18.5385 44C18.5385 45.6569 19.8816 47 21.5385 47V45C20.9862 45 20.5385 44.5523 20.5385 44H18.5385Z" fill="url(#paint1_linear)" mask="url(#path-3-inside-2)"/>
<defs>
<filter id="filter0_f" x="0" y="0" width="49" height="49" filterUnits="userSpaceOnUse" color-interpolation-filters="sRGB">
<feFlood flood-opacity="0" result="BackgroundImageFix"/>
<feBlend mode="normal" in="SourceGraphic" in2="BackgroundImageFix" result="shape"/>
<feGaussianBlur stdDeviation="1.5" result="effect1_foregroundBlur"/>
</filter>
<linearGradient id="paint0_linear" x1="15.9896" y1="7.47917" x2="44.5909" y2="33.9892" gradientUnits="userSpaceOnUse">
<stop stop-color="#F9A83A"/>
<stop offset="1" stop-color="#00979C"/>
</linearGradient>
<linearGradient id="paint1_linear" x1="15.9896" y1="7.47917" x2="44.5909" y2="33.9892" gradientUnits="userSpaceOnUse">
<stop stop-color="#F9A83A"/>
<stop offset="1" stop-color="#00979C"/>
</linearGradient>
</defs>
</svg>
