<svg width="24" height="24" viewBox="0 0 24 24" fill="none" xmlns="http://www.w3.org/2000/svg">
<path fill-rule="evenodd" clip-rule="evenodd" d="M6.41521 1.83358C6.57245 1.95707 6.74904 2.12322 6.95222 2.32389C7.3875 2.7523 7.89249 3.43869 8.32582 4.09762C8.764 4.76393 9.17003 5.46537 9.3976 5.95358L9.39775 5.95389L9.39789 5.95421C9.52689 6.2316 9.64315 6.48297 9.72488 6.70329C9.80787 6.92702 9.87684 7.17311 9.87728 7.44167C9.87821 8.00382 9.57309 8.43768 9.27919 8.83785C9.19475 8.95281 9.12301 9.04701 9.06117 9.1282C8.92789 9.30322 8.84052 9.41795 8.77056 9.55065C8.70233 9.68008 8.68242 9.77353 8.71472 9.92397C8.76128 10.1409 8.96374 10.6157 9.35685 11.2369C9.73704 11.8377 10.2576 12.5153 10.8795 13.1352C11.5013 13.755 12.1681 14.2618 12.7569 14.6286C13.3636 15.0065 13.8308 15.2004 14.054 15.248C14.2093 15.2812 14.3062 15.2604 14.4359 15.1929C14.5728 15.1217 14.6945 15.0288 14.8837 14.8843C14.9581 14.8275 15.0429 14.7627 15.1432 14.6882L15.1434 14.6881L15.1509 14.6825C15.5525 14.3841 15.9986 14.0527 16.5641 14.0533C16.8435 14.0536 17.0943 14.1325 17.3151 14.2226C17.526 14.3087 17.7684 14.4308 18.0342 14.5647L18.0565 14.5759C18.5224 14.8109 19.2153 15.209 19.886 15.6429C20.5449 16.0691 21.2401 16.5667 21.673 17.0029L21.6736 17.0035C21.8748 17.2068 22.0414 17.3834 22.1652 17.5406C22.285 17.6927 22.4166 17.8895 22.472 18.1344C22.5345 18.4101 22.4779 18.6396 22.4198 18.7987C22.3936 18.8705 22.3627 18.9393 22.3406 18.9886C22.3371 18.9963 22.3337 19.0038 22.3304 19.0111C22.3098 19.0568 22.2919 19.0967 22.2728 19.1423L22.2723 19.1434L22.2719 19.1445C22.0759 19.6091 21.8376 20.0547 21.5599 20.4755L21.5591 20.4768L21.5583 20.4781C21.0156 21.2933 20.5052 21.8259 19.7117 22.1955C19.2994 22.3875 18.7102 22.5815 17.7947 22.4673C16.914 22.3575 15.7683 21.9676 14.2046 21.0918L14.2042 21.0916C11.702 19.6883 9.96576 18.4784 7.72605 16.245C5.49292 14.0181 4.39529 12.5647 2.85767 9.77134C1.30973 6.95927 1.31194 5.22515 1.754 4.28053C2.12516 3.4874 2.66313 2.97929 3.47561 2.4395L3.47721 2.43844L3.47881 2.43739C3.90013 2.16058 4.3459 1.92293 4.81056 1.72743L4.81209 1.72678L4.81363 1.72615C4.85961 1.70704 4.89983 1.68901 4.94582 1.66839C4.95303 1.66516 4.96038 1.66187 4.96792 1.65849C5.01733 1.63638 5.08624 1.60564 5.15794 1.5796C5.31686 1.52187 5.54584 1.46548 5.8211 1.52755C6.06584 1.58274 6.26273 1.71383 6.41521 1.83358ZM5.39088 3.11063C5.01173 3.27025 4.64794 3.46417 4.30407 3.68997C3.61769 4.14617 3.32346 4.46573 3.11259 4.91631C2.97246 5.21576 2.71312 6.3982 4.17174 9.048C5.64069 11.7166 6.65242 13.056 8.78523 15.1828C10.9113 17.303 12.5322 18.4341 14.9376 19.7831C16.4095 20.6075 17.3638 20.902 17.9803 20.9789C18.5618 21.0514 18.8668 20.9343 19.0783 20.8357C19.5324 20.6242 19.8534 20.332 20.3088 19.648C20.5352 19.3047 20.7295 18.9414 20.8894 18.5625C20.9109 18.511 20.9321 18.4633 20.9499 18.4236C20.88 18.3405 20.7729 18.2258 20.6081 18.0593C20.2965 17.7455 19.7183 17.3209 19.0712 16.9023C18.4359 16.4913 17.7901 16.1216 17.3814 15.9154C17.0863 15.7668 16.8973 15.6722 16.7482 15.6114C16.603 15.5521 16.5608 15.5533 16.5625 15.5533C16.5761 15.5533 16.5297 15.5268 16.0379 15.8922C15.9877 15.9295 15.9334 15.9712 15.8759 16.0152C15.6568 16.1832 15.3914 16.3866 15.1285 16.5235C14.7357 16.728 14.2847 16.831 13.7411 16.715C13.2653 16.6136 12.6237 16.3128 11.9638 15.9018C11.286 15.4796 10.5286 14.9034 9.82053 14.1976C9.11262 13.4919 8.52362 12.7253 8.08935 12.0391C7.66802 11.3733 7.35109 10.7184 7.24813 10.2388C7.13089 9.69268 7.23778 9.24168 7.44365 8.85115C7.57631 8.59949 7.77463 8.33947 7.93785 8.12546C7.98588 8.06249 8.03086 8.00351 8.07025 7.94989C8.38553 7.5206 8.37814 7.45217 8.37733 7.44471C8.3773 7.44446 8.37728 7.44428 8.37728 7.44415C8.37726 7.4297 8.37392 7.37433 8.31852 7.22497C8.26185 7.07221 8.17364 6.8789 8.03784 6.58685C7.85238 6.1891 7.48884 5.55485 7.07253 4.9218C6.65141 4.28142 6.21705 3.70485 5.89966 3.39259L5.89912 3.39206L5.89858 3.39153C5.73111 3.2261 5.61592 3.11889 5.53276 3.0491C5.49236 3.06716 5.44367 3.08866 5.39088 3.11063Z" fill="white"/>
</svg>
