<?xml version="1.0" encoding="UTF-8"?> <svg xmlns="http://www.w3.org/2000/svg" width="306" height="338" viewBox="0 0 306 338" fill="none"> <path d="M28.1112 185.306L130.858 117.898C132.461 116.973 133.791 115.643 134.715 114.041C135.639 112.438 136.124 110.621 136.121 108.772L142.874 9.7266C142.874 6.21329 135.316 -1.61751 129.271 1.87869L20.4965 64.6505C18.6739 65.7019 17.1605 67.2142 16.1084 69.0353C15.0563 70.8565 14.5026 72.9223 14.5029 75.025L14.8568 179.067C14.8568 184.958 23.0424 188.232 28.1112 185.306Z" fill="#E2E2E2" stroke="#1E2532" stroke-width="0.2" stroke-linejoin="round"></path> <path d="M122.595 161.625L142.865 173.317V149.939L122.595 138.247V161.625Z" fill="#37C99E" stroke="#1E2532" stroke-width="0.2" stroke-linejoin="round"></path> <path d="M163.13 138.247L142.866 149.939V173.317L163.13 161.625V138.247Z" fill="#37C99E" stroke="#1E2532" stroke-width="0.2" stroke-linejoin="round"></path> <path d="M122.595 138.247L142.865 126.555L163.129 138.247L142.865 149.939L122.595 138.247Z" fill="#37C99E" stroke="#1E2532" stroke-width="0.2" stroke-linejoin="round"></path> <path d="M142.867 173.318L163.131 185.01V161.626L142.867 149.94V173.318Z" fill="#37C99E" stroke="#1E2532" stroke-width="0.2" stroke-linejoin="round"></path> <path d="M183.401 149.94L163.131 161.626V185.01L183.401 173.318V149.94Z" fill="#37C99E" stroke="#1E2532" stroke-width="0.2" stroke-linejoin="round"></path> <path d="M142.867 149.94L163.131 138.248L183.4 149.94L163.131 161.626L142.867 149.94Z" fill="#37C99E" stroke="#1E2532" stroke-width="0.2" stroke-linejoin="round"></path> <path d="M163.129 185.009L183.399 196.701V173.317L163.129 161.625V185.009Z" fill="#37C99E" stroke="#1E2532" stroke-width="0.2" stroke-linejoin="round"></path> <path d="M203.664 161.625L183.4 173.317V196.701L203.664 185.009V161.625Z" fill="#37C99E" stroke="#1E2532" stroke-width="0.2" stroke-linejoin="round"></path> <path d="M163.129 161.625L183.399 149.939L203.663 161.625L183.399 173.317L163.129 161.625Z" fill="#37C99E" stroke="#1E2532" stroke-width="0.2" stroke-linejoin="round"></path> <path d="M183.399 196.701L203.663 208.393V185.009L183.399 173.317V196.701Z" fill="#37C99E" stroke="#1E2532" stroke-width="0.2" stroke-linejoin="round"></path> <path d="M223.933 173.317L203.663 185.009V208.393L223.933 196.701V173.317Z" fill="#37C99E" stroke="#1E2532" stroke-width="0.2" stroke-linejoin="round"></path> <path d="M183.398 173.318L203.662 161.626L223.932 173.318L203.662 185.01L183.398 173.318Z" fill="#37C99E" stroke="#1E2532" stroke-width="0.2" stroke-linejoin="round"></path> <path d="M203.662 208.394L223.931 220.086V196.702L203.662 185.01V208.394Z" fill="#37C99E" stroke="#1E2532" stroke-width="0.2" stroke-linejoin="round"></path> <path d="M244.196 185.01L223.932 196.702V220.086L244.196 208.394V185.01Z" fill="#37C99E" stroke="#1E2532" stroke-width="0.2" stroke-linejoin="round"></path> <path d="M203.662 185.01L223.931 173.318L244.195 185.01L223.931 196.702L203.662 185.01Z" fill="#37C99E" stroke="#1E2532" stroke-width="0.2" stroke-linejoin="round"></path> <path d="M223.933 220.086L244.197 231.778V208.394L223.933 196.702V220.086Z" fill="#37C99E" stroke="#1E2532" stroke-width="0.2" stroke-linejoin="round"></path> <path d="M264.467 196.702L244.197 208.394V231.778L264.467 220.086V196.702Z" fill="#148C69" stroke="#1E2532" stroke-width="0.2" stroke-linejoin="round"></path> <path d="M223.933 196.702L244.197 185.01L264.467 196.702L244.197 208.394L223.933 196.702Z" fill="#37C99E" stroke="#1E2532" stroke-width="0.2" stroke-linejoin="round"></path> <path d="M102.333 173.318L122.597 185.01V161.626L102.333 149.94V173.318Z" fill="#37C99E" stroke="#1E2532" stroke-width="0.2" stroke-linejoin="round"></path> <path d="M142.866 149.94L122.597 161.626V185.01L142.866 173.318V149.94Z" fill="#37C99E" stroke="#1E2532" stroke-width="0.2" stroke-linejoin="round"></path> <path d="M102.333 149.94L122.597 138.248L142.866 149.94L122.597 161.626L102.333 149.94Z" fill="#37C99E" stroke="#1E2532" stroke-width="0.2" stroke-linejoin="round"></path> <path d="M122.595 185.009L142.865 196.701V173.317L122.595 161.625V185.009Z" fill="#37C99E" stroke="#1E2532" stroke-width="0.2" stroke-linejoin="round"></path> <path d="M163.13 161.625L142.866 173.317V196.701L163.13 185.009V161.625Z" fill="#37C99E" stroke="#1E2532" stroke-width="0.2" stroke-linejoin="round"></path> <path d="M122.595 161.626L142.865 149.939L163.129 161.626L142.865 173.318L122.595 161.626Z" fill="#37C99E" stroke="#1E2532" stroke-width="0.2" stroke-linejoin="round"></path> <path d="M142.867 196.701L163.131 208.393V185.009L142.867 173.317V196.701Z" fill="#37C99E" stroke="#1E2532" stroke-width="0.2" stroke-linejoin="round"></path> <path d="M183.401 173.317L163.131 185.009V208.393L183.401 196.701V173.317Z" fill="#37C99E" stroke="#1E2532" stroke-width="0.2" stroke-linejoin="round"></path> <path d="M142.867 173.317L163.131 161.625L183.4 173.317L163.131 185.009L142.867 173.317Z" fill="#37C99E" stroke="#1E2532" stroke-width="0.2" stroke-linejoin="round"></path> <path d="M163.129 208.394L183.399 220.086V196.702L163.129 185.01V208.394Z" fill="#37C99E" stroke="#1E2532" stroke-width="0.2" stroke-linejoin="round"></path> <path d="M203.664 185.01L183.4 196.702V220.086L203.664 208.394V185.01Z" fill="#37C99E" stroke="#1E2532" stroke-width="0.2" stroke-linejoin="round"></path> <path d="M163.129 185.01L183.399 173.318L203.663 185.01L183.399 196.702L163.129 185.01Z" fill="#37C99E" stroke="#1E2532" stroke-width="0.2" stroke-linejoin="round"></path> <path d="M183.399 220.086L203.663 231.778V208.394L183.399 196.702V220.086Z" fill="#37C99E" stroke="#1E2532" stroke-width="0.2" stroke-linejoin="round"></path> <path d="M223.933 196.702L203.663 208.394V231.778L223.933 220.086V196.702Z" fill="#37C99E" stroke="#1E2532" stroke-width="0.2" stroke-linejoin="round"></path> <path d="M183.398 196.702L203.662 185.01L223.932 196.702L203.662 208.394L183.398 196.702Z" fill="#37C99E" stroke="#1E2532" stroke-width="0.2" stroke-linejoin="round"></path> <path d="M203.662 231.778L223.931 243.47V220.086L203.662 208.394V231.778Z" fill="#37C99E" stroke="#1E2532" stroke-width="0.2" stroke-linejoin="round"></path> <path d="M244.196 208.394L223.932 220.086V243.47L244.196 231.778V208.394Z" fill="#148C69" stroke="#1E2532" stroke-width="0.2" stroke-linejoin="round"></path> <path d="M203.662 208.394L223.931 196.702L244.195 208.394L223.931 220.086L203.662 208.394Z" fill="#37C99E" stroke="#1E2532" stroke-width="0.2" stroke-linejoin="round"></path> <path d="M82.0625 185.009L102.332 196.701V173.317L82.0625 161.625V185.009Z" fill="#37C99E" stroke="#1E2532" stroke-width="0.2" stroke-linejoin="round"></path> <path d="M122.598 161.625L102.333 173.317V196.701L122.598 185.009V161.625Z" fill="#37C99E" stroke="#1E2532" stroke-width="0.2" stroke-linejoin="round"></path> <path d="M82.0625 161.626L102.332 149.939L122.596 161.626L102.332 173.318L82.0625 161.626Z" fill="#37C99E" stroke="#1E2532" stroke-width="0.2" stroke-linejoin="round"></path> <path d="M102.333 196.701L122.597 208.393V185.009L102.333 173.317V196.701Z" fill="#37C99E" stroke="#1E2532" stroke-width="0.2" stroke-linejoin="round"></path> <path d="M142.866 173.317L122.597 185.009V208.393L142.866 196.701V173.317Z" fill="#37C99E" stroke="#1E2532" stroke-width="0.2" stroke-linejoin="round"></path> <path d="M102.333 173.317L122.597 161.625L142.866 173.317L122.597 185.009L102.333 173.317Z" fill="#37C99E" stroke="#1E2532" stroke-width="0.2" stroke-linejoin="round"></path> <path d="M122.595 208.394L142.865 220.086V196.702L122.595 185.01V208.394Z" fill="#37C99E" stroke="#1E2532" stroke-width="0.2" stroke-linejoin="round"></path> <path d="M163.13 185.01L142.866 196.702V220.086L163.13 208.394V185.01Z" fill="#37C99E" stroke="#1E2532" stroke-width="0.2" stroke-linejoin="round"></path> <path d="M122.595 185.01L142.865 173.318L163.129 185.01L142.865 196.702L122.595 185.01Z" fill="#37C99E" stroke="#1E2532" stroke-width="0.2" stroke-linejoin="round"></path> <path d="M142.867 220.085L163.131 231.777V208.393L142.867 196.701V220.085Z" fill="#37C99E" stroke="#1E2532" stroke-width="0.2" stroke-linejoin="round"></path> <path d="M183.401 196.701L163.131 208.393V231.777L183.401 220.085V196.701Z" fill="#37C99E" stroke="#1E2532" stroke-width="0.2" stroke-linejoin="round"></path> <path d="M142.867 196.701L163.131 185.009L183.4 196.701L163.131 208.393L142.867 196.701Z" fill="#37C99E" stroke="#1E2532" stroke-width="0.2" stroke-linejoin="round"></path> <path d="M163.129 231.778L183.399 243.47V220.086L163.129 208.394V231.778Z" fill="#37C99E" stroke="#1E2532" stroke-width="0.2" stroke-linejoin="round"></path> <path d="M203.664 208.394L183.4 220.086V243.47L203.664 231.778V208.394Z" fill="#37C99E" stroke="#1E2532" stroke-width="0.2" stroke-linejoin="round"></path> <path d="M163.129 208.394L183.399 196.702L203.663 208.394L183.399 220.086L163.129 208.394Z" fill="#37C99E" stroke="#1E2532" stroke-width="0.2" stroke-linejoin="round"></path> <path d="M183.399 243.47L203.663 255.156V231.778L183.399 220.086V243.47Z" fill="#37C99E" stroke="#1E2532" stroke-width="0.2" stroke-linejoin="round"></path> <path d="M223.933 220.086L203.663 231.778V255.156L223.933 243.47V220.086Z" fill="#148C69" stroke="#1E2532" stroke-width="0.2" stroke-linejoin="round"></path> <path d="M183.398 220.086L203.662 208.394L223.932 220.086L203.662 231.778L183.398 220.086Z" fill="#37C99E" stroke="#1E2532" stroke-width="0.2" stroke-linejoin="round"></path> <path d="M61.7979 196.701L82.0619 208.393V185.009L61.7979 173.317V196.701Z" fill="#37C99E" stroke="#1E2532" stroke-width="0.2" stroke-linejoin="round"></path> <path d="M102.332 173.317L82.062 185.009V208.393L102.332 196.701V173.317Z" fill="#37C99E" stroke="#1E2532" stroke-width="0.2" stroke-linejoin="round"></path> <path d="M61.7979 173.317L82.0619 161.625L102.332 173.317L82.0619 185.009L61.7979 173.317Z" fill="#37C99E" stroke="#1E2532" stroke-width="0.2" stroke-linejoin="round"></path> <path d="M82.0625 208.394L102.332 220.086V196.702L82.0625 185.01V208.394Z" fill="#37C99E" stroke="#1E2532" stroke-width="0.2" stroke-linejoin="round"></path> <path d="M122.598 185.01L102.333 196.702V220.086L122.598 208.394V185.01Z" fill="#37C99E" stroke="#1E2532" stroke-width="0.2" stroke-linejoin="round"></path> <path d="M82.0625 185.01L102.332 173.318L122.596 185.01L102.332 196.702L82.0625 185.01Z" fill="#37C99E" stroke="#1E2532" stroke-width="0.2" stroke-linejoin="round"></path> <path d="M102.333 220.085L122.597 231.777V208.393L102.333 196.701V220.085Z" fill="#37C99E" stroke="#1E2532" stroke-width="0.2" stroke-linejoin="round"></path> <path d="M142.866 196.701L122.597 208.393V231.777L142.866 220.085V196.701Z" fill="#37C99E" stroke="#1E2532" stroke-width="0.2" stroke-linejoin="round"></path> <path d="M102.333 196.701L122.597 185.009L142.866 196.701L122.597 208.393L102.333 196.701Z" fill="#37C99E" stroke="#1E2532" stroke-width="0.2" stroke-linejoin="round"></path> <path d="M122.595 231.778L142.865 243.47V220.086L122.595 208.394V231.778Z" fill="#37C99E" stroke="#1E2532" stroke-width="0.2" stroke-linejoin="round"></path> <path d="M163.13 208.394L142.866 220.086V243.47L163.13 231.778V208.394Z" fill="#37C99E" stroke="#1E2532" stroke-width="0.2" stroke-linejoin="round"></path> <path d="M122.595 208.394L142.865 196.702L163.129 208.394L142.865 220.086L122.595 208.394Z" fill="#37C99E" stroke="#1E2532" stroke-width="0.2" stroke-linejoin="round"></path> <path d="M142.867 243.469L163.131 255.156V231.777L142.867 220.085V243.469Z" fill="#37C99E" stroke="#1E2532" stroke-width="0.2" stroke-linejoin="round"></path> <path d="M183.401 220.085L163.131 231.777V255.156L183.401 243.469V220.085Z" fill="#37C99E" stroke="#1E2532" stroke-width="0.2" stroke-linejoin="round"></path> <path d="M142.867 220.086L163.131 208.394L183.4 220.086L163.131 231.778L142.867 220.086Z" fill="#37C99E" stroke="#1E2532" stroke-width="0.2" stroke-linejoin="round"></path> <path d="M163.129 255.156L183.399 266.848V243.47L163.129 231.778V255.156Z" fill="#37C99E" stroke="#1E2532" stroke-width="0.2" stroke-linejoin="round"></path> <path d="M203.664 231.778L183.4 243.47V266.848L203.664 255.156V231.778Z" fill="#148C69" stroke="#1E2532" stroke-width="0.2" stroke-linejoin="round"></path> <path d="M163.129 231.778L183.399 220.086L203.663 231.778L183.399 243.47L163.129 231.778Z" fill="#37C99E" stroke="#1E2532" stroke-width="0.2" stroke-linejoin="round"></path> <path d="M41.5288 208.394L61.7985 220.086V196.702L41.5288 185.01V208.394Z" fill="#37C99E" stroke="#1E2532" stroke-width="0.2" stroke-linejoin="round"></path> <path d="M82.0633 185.01L61.7993 196.702V220.086L82.0633 208.394V185.01Z" fill="#37C99E" stroke="#1E2532" stroke-width="0.2" stroke-linejoin="round"></path> <path d="M41.5288 185.01L61.7985 173.318L82.0625 185.01L61.7985 196.702L41.5288 185.01Z" fill="#37C99E" stroke="#1E2532" stroke-width="0.2" stroke-linejoin="round"></path> <path d="M61.7979 220.085L82.0619 231.777V208.393L61.7979 196.701V220.085Z" fill="#37C99E" stroke="#1E2532" stroke-width="0.2" stroke-linejoin="round"></path> <path d="M102.332 196.701L82.062 208.393V231.777L102.332 220.085V196.701Z" fill="#37C99E" stroke="#1E2532" stroke-width="0.2" stroke-linejoin="round"></path> <path d="M61.7979 196.701L82.0619 185.009L102.332 196.701L82.0619 208.393L61.7979 196.701Z" fill="#37C99E" stroke="#1E2532" stroke-width="0.2" stroke-linejoin="round"></path> <path d="M82.0625 231.778L102.332 243.47V220.086L82.0625 208.394V231.778Z" fill="#37C99E" stroke="#1E2532" stroke-width="0.2" stroke-linejoin="round"></path> <path d="M122.598 208.394L102.333 220.086V243.47L122.598 231.778V208.394Z" fill="#37C99E" stroke="#1E2532" stroke-width="0.2" stroke-linejoin="round"></path> <path d="M82.0625 208.394L102.332 196.702L122.596 208.394L102.332 220.086L82.0625 208.394Z" fill="#37C99E" stroke="#1E2532" stroke-width="0.2" stroke-linejoin="round"></path> <path d="M102.333 243.469L122.597 255.156V231.777L102.333 220.085V243.469Z" fill="#37C99E" stroke="#1E2532" stroke-width="0.2" stroke-linejoin="round"></path> <path d="M142.866 220.085L122.597 231.777V255.156L142.866 243.469V220.085Z" fill="#37C99E" stroke="#1E2532" stroke-width="0.2" stroke-linejoin="round"></path> <path d="M102.333 220.086L122.597 208.394L142.866 220.086L122.597 231.778L102.333 220.086Z" fill="#37C99E" stroke="#1E2532" stroke-width="0.2" stroke-linejoin="round"></path> <path d="M122.595 255.156L142.865 266.848V243.47L122.595 231.778V255.156Z" fill="#37C99E" stroke="#1E2532" stroke-width="0.2" stroke-linejoin="round"></path> <path d="M163.13 231.778L142.866 243.47V266.848L163.13 255.156V231.778Z" fill="#37C99E" stroke="#1E2532" stroke-width="0.2" stroke-linejoin="round"></path> <path d="M122.595 231.778L142.865 220.086L163.129 231.778L142.865 243.47L122.595 231.778Z" fill="#37C99E" stroke="#1E2532" stroke-width="0.2" stroke-linejoin="round"></path> <path d="M142.867 266.848L163.131 278.54V255.156L142.867 243.47V266.848Z" fill="#37C99E" stroke="#1E2532" stroke-width="0.2" stroke-linejoin="round"></path> <path d="M183.401 243.47L163.131 255.156V278.54L183.401 266.848V243.47Z" fill="#148C69" stroke="#1E2532" stroke-width="0.2" stroke-linejoin="round"></path> <path d="M142.867 243.47L163.131 231.778L183.4 243.47L163.131 255.156L142.867 243.47Z" fill="#37C99E" stroke="#1E2532" stroke-width="0.2" stroke-linejoin="round"></path> <path d="M21.2637 220.085L41.5277 231.777V208.393L21.2637 196.701V220.085Z" fill="#148C69" stroke="#1E2532" stroke-width="0.2" stroke-linejoin="round"></path> <path d="M61.7975 196.701L41.5278 208.393V231.777L61.7975 220.085V196.701Z" fill="#37C99E" stroke="#1E2532" stroke-width="0.2" stroke-linejoin="round"></path> <path d="M21.2637 196.701L41.5277 185.009L61.7974 196.701L41.5277 208.393L21.2637 196.701Z" fill="#37C99E" stroke="#1E2532" stroke-width="0.2" stroke-linejoin="round"></path> <path d="M41.5288 231.778L61.7985 243.47V220.086L41.5288 208.394V231.778Z" fill="#148C69" stroke="#1E2532" stroke-width="0.2" stroke-linejoin="round"></path> <path d="M82.0633 208.394L61.7993 220.086V243.47L82.0633 231.778V208.394Z" fill="#37C99E" stroke="#1E2532" stroke-width="0.2" stroke-linejoin="round"></path> <path d="M41.5288 208.394L61.7985 196.702L82.0625 208.394L61.7985 220.086L41.5288 208.394Z" fill="#37C99E" stroke="#1E2532" stroke-width="0.2" stroke-linejoin="round"></path> <path d="M61.7979 243.469L82.0619 255.156V231.777L61.7979 220.085V243.469Z" fill="#148C69" stroke="#1E2532" stroke-width="0.2" stroke-linejoin="round"></path> <path d="M102.332 220.085L82.062 231.777V255.156L102.332 243.469V220.085Z" fill="#37C99E" stroke="#1E2532" stroke-width="0.2" stroke-linejoin="round"></path> <path d="M61.7979 220.086L82.0619 208.394L102.332 220.086L82.0619 231.778L61.7979 220.086Z" fill="#37C99E" stroke="#1E2532" stroke-width="0.2" stroke-linejoin="round"></path> <path d="M82.0625 255.156L102.332 266.848V243.47L82.0625 231.778V255.156Z" fill="#148C69" stroke="#1E2532" stroke-width="0.2" stroke-linejoin="round"></path> <path d="M122.598 231.778L102.333 243.47V266.848L122.598 255.156V231.778Z" fill="#37C99E" stroke="#1E2532" stroke-width="0.2" stroke-linejoin="round"></path> <path d="M82.0625 231.778L102.332 220.086L122.596 231.778L102.332 243.47L82.0625 231.778Z" fill="#37C99E" stroke="#1E2532" stroke-width="0.2" stroke-linejoin="round"></path> <path d="M102.333 266.848L122.597 278.54V255.156L102.333 243.47V266.848Z" fill="#148C69" stroke="#1E2532" stroke-width="0.2" stroke-linejoin="round"></path> <path d="M142.866 243.47L122.597 255.156V278.54L142.866 266.848V243.47Z" fill="#37C99E" stroke="#1E2532" stroke-width="0.2" stroke-linejoin="round"></path> <path d="M102.333 243.47L122.597 231.778L142.866 243.47L122.597 255.156L102.333 243.47Z" fill="#37C99E" stroke="#1E2532" stroke-width="0.2" stroke-linejoin="round"></path> <path d="M1.00049 255.156L21.2645 266.848V243.47L1.00049 231.778V255.156Z" fill="#148C69" stroke="#1E2532" stroke-width="0.2" stroke-linejoin="round"></path> <path d="M41.5287 231.778L21.2646 243.47V266.848L41.5287 255.156V231.778Z" fill="#37C99E" stroke="#1E2532" stroke-width="0.2" stroke-linejoin="round"></path> <path d="M1 231.778L21.264 220.086L41.528 231.778L21.264 243.47L1 231.778Z" fill="#37C99E" stroke="#1E2532" stroke-width="0.2" stroke-linejoin="round"></path> <path d="M21.2637 266.848L41.5277 278.54V255.156L21.2637 243.47V266.848Z" fill="#148C69" stroke="#1E2532" stroke-width="0.2" stroke-linejoin="round"></path> <path d="M61.7975 243.47L41.5278 255.156V278.54L61.7975 266.848V243.47Z" fill="#37C99E" stroke="#1E2532" stroke-width="0.2" stroke-linejoin="round"></path> <path d="M21.2637 243.47L41.5277 231.778L61.7974 243.47L41.5277 255.156L21.2637 243.47Z" fill="#37C99E" stroke="#1E2532" stroke-width="0.2" stroke-linejoin="round"></path> <path d="M41.5288 278.541L61.7985 290.233V266.849L41.5288 255.157V278.541Z" fill="#37C99E" stroke="#1E2532" stroke-width="0.2" stroke-linejoin="round"></path> <path d="M82.0633 255.157L61.7993 266.849V290.233L82.0633 278.541V255.157Z" fill="#37C99E" stroke="#1E2532" stroke-width="0.2" stroke-linejoin="round"></path> <path d="M41.5288 255.157L61.7985 243.47L82.0625 255.157L61.7985 266.849L41.5288 255.157Z" fill="#37C99E" stroke="#1E2532" stroke-width="0.2" stroke-linejoin="round"></path> <path d="M61.7979 290.232L82.0619 301.924V278.54L61.7979 266.848V290.232Z" fill="#37C99E" stroke="#1E2532" stroke-width="0.2" stroke-linejoin="round"></path> <path d="M102.332 266.848L82.062 278.54V301.924L102.332 290.232V266.848Z" fill="#37C99E" stroke="#1E2532" stroke-width="0.2" stroke-linejoin="round"></path> <path d="M61.7979 266.849L82.0619 255.156L102.332 266.849L82.0619 278.541L61.7979 266.849Z" fill="#37C99E" stroke="#1E2532" stroke-width="0.2" stroke-linejoin="round"></path> <path d="M82.0625 301.924L102.332 313.616V290.232L82.0625 278.54V301.924Z" fill="#37C99E" stroke="#1E2532" stroke-width="0.2" stroke-linejoin="round"></path> <path d="M122.598 278.54L102.333 290.232V313.616L122.598 301.924V278.54Z" fill="#148C69" stroke="#1E2532" stroke-width="0.2" stroke-linejoin="round"></path> <path d="M82.0625 278.54L102.332 266.848L122.596 278.54L102.332 290.232L82.0625 278.54Z" fill="#37C99E" stroke="#1E2532" stroke-width="0.2" stroke-linejoin="round"></path> <path d="M21.2637 290.232L41.5277 301.924V278.54L21.2637 266.848V290.232Z" fill="#148C69" stroke="#1E2532" stroke-width="0.2" stroke-linejoin="round"></path> <path d="M61.7975 266.848L41.5278 278.54V301.924L61.7975 290.232V266.848Z" fill="#37C99E" stroke="#1E2532" stroke-width="0.2" stroke-linejoin="round"></path> <path d="M21.2637 266.849L41.5277 255.156L61.7974 266.849L41.5277 278.541L21.2637 266.849Z" fill="#37C99E" stroke="#1E2532" stroke-width="0.2" stroke-linejoin="round"></path> <path d="M41.5288 301.924L61.7985 313.616V290.232L41.5288 278.54V301.924Z" fill="#148C69" stroke="#1E2532" stroke-width="0.2" stroke-linejoin="round"></path> <path d="M82.0633 278.54L61.7993 290.232V313.616L82.0633 301.924V278.54Z" fill="#37C99E" stroke="#1E2532" stroke-width="0.2" stroke-linejoin="round"></path> <path d="M41.5288 278.54L61.7985 266.848L82.0625 278.54L61.7985 290.232L41.5288 278.54Z" fill="#37C99E" stroke="#1E2532" stroke-width="0.2" stroke-linejoin="round"></path> <path d="M61.7979 313.617L82.0619 325.309V301.925L61.7979 290.233V313.617Z" fill="#148C69" stroke="#1E2532" stroke-width="0.2" stroke-linejoin="round"></path> <path d="M102.332 290.233L82.062 301.925V325.309L102.332 313.617V290.233Z" fill="#148C69" stroke="#1E2532" stroke-width="0.2" stroke-linejoin="round"></path> <path d="M61.7979 290.233L82.0619 278.541L102.332 290.233L82.0619 301.925L61.7979 290.233Z" fill="#37C99E" stroke="#1E2532" stroke-width="0.2" stroke-linejoin="round"></path> <path d="M56.728 281.813L65.1761 286.683V276.942L56.728 272.071V281.813Z" fill="white" stroke="#1E2532" stroke-width="0.2" stroke-linejoin="round"></path> <path d="M73.6187 272.071L65.1763 276.942V286.683L73.6187 281.813V272.071Z" fill="white" stroke="#1E2532" stroke-width="0.2" stroke-linejoin="round"></path> <path d="M56.728 272.072L65.1761 267.201L73.6185 272.072L65.1761 276.943L56.728 272.072Z" fill="#E2E2E2" stroke="#1E2532" stroke-width="0.2" stroke-linejoin="round"></path> <path d="M65.1772 286.685L73.6196 291.556V281.814L65.1772 276.943V286.685Z" fill="#F9B8C4" stroke="#1E2532" stroke-width="0.2" stroke-linejoin="round"></path> <path d="M82.0615 276.943L73.6191 281.814V291.556L82.0615 286.685V276.943Z" fill="#F9B8C4" stroke="#1E2532" stroke-width="0.2" stroke-linejoin="round"></path> <path d="M65.1768 276.943L73.6191 272.073L82.0615 276.943L73.6191 281.814L65.1768 276.943Z" fill="#F9B8C4" stroke="#1E2532" stroke-width="0.2" stroke-linejoin="round"></path> <path d="M65.2686 277L73.7109 281.87V272.123L65.2686 267.252V277Z" fill="white" stroke="#1E2532" stroke-width="0.2" stroke-linejoin="round"></path> <path d="M82.1585 267.252L73.7104 272.123V281.87L82.1585 277V267.252Z" fill="#E2E2E2" stroke="#1E2532" stroke-width="0.2" stroke-linejoin="round"></path> <path d="M65.2686 267.253L73.7109 262.382L82.159 267.253L73.7109 272.124L65.2686 267.253Z" fill="white" stroke="#1E2532" stroke-width="0.2" stroke-linejoin="round"></path> <path d="M73.6177 291.555L82.0601 296.425V286.684L73.6177 281.813V291.555Z" fill="white" stroke="#1E2532" stroke-width="0.2" stroke-linejoin="round"></path> <path d="M90.5077 281.813L82.0596 286.684V296.425L90.5077 291.555V281.813Z" fill="#E2E2E2" stroke="#1E2532" stroke-width="0.2" stroke-linejoin="round"></path> <path d="M73.6177 281.814L82.0601 276.943L90.5081 281.814L82.0601 286.685L73.6177 281.814Z" fill="white" stroke="#1E2532" stroke-width="0.2" stroke-linejoin="round"></path> <path d="M122.595 278.541L142.865 290.233V266.849L122.595 255.157V278.541Z" fill="#148C69" stroke="#1E2532" stroke-width="0.2" stroke-linejoin="round"></path> <path d="M163.13 255.157L142.866 266.849V290.233L163.13 278.541V255.157Z" fill="#148C69" stroke="#1E2532" stroke-width="0.2" stroke-linejoin="round"></path> <path d="M122.595 255.156L142.865 243.47L163.129 255.156L142.865 266.848L122.595 255.156Z" fill="#37C99E" stroke="#1E2532" stroke-width="0.2" stroke-linejoin="round"></path> <path d="M244.196 255.156L264.466 266.848V243.47L244.196 231.778V255.156Z" fill="#37C99E" stroke="#1E2532" stroke-width="0.2" stroke-linejoin="round"></path> <path d="M284.737 231.778L264.467 243.47V266.848L284.737 255.156V231.778Z" fill="#37C99E" stroke="#1E2532" stroke-width="0.2" stroke-linejoin="round"></path> <path d="M244.196 231.778L264.466 220.086L284.736 231.778L264.466 243.47L244.196 231.778Z" fill="#37C99E" stroke="#1E2532" stroke-width="0.2" stroke-linejoin="round"></path> <path d="M223.933 266.848L244.197 278.54V255.156L223.933 243.47V266.848Z" fill="#37C99E" stroke="#1E2532" stroke-width="0.2" stroke-linejoin="round"></path> <path d="M264.467 243.47L244.197 255.156V278.54L264.467 266.848V243.47Z" fill="#37C99E" stroke="#1E2532" stroke-width="0.2" stroke-linejoin="round"></path> <path d="M223.933 243.47L244.197 231.778L264.467 243.47L244.197 255.156L223.933 243.47Z" fill="#37C99E" stroke="#1E2532" stroke-width="0.2" stroke-linejoin="round"></path> <path d="M203.662 278.541L223.931 290.233V266.849L203.662 255.157V278.541Z" fill="#37C99E" stroke="#1E2532" stroke-width="0.2" stroke-linejoin="round"></path> <path d="M244.196 255.157L223.932 266.849V290.233L244.196 278.541V255.157Z" fill="#37C99E" stroke="#1E2532" stroke-width="0.2" stroke-linejoin="round"></path> <path d="M203.662 255.157L223.931 243.47L244.195 255.157L223.931 266.849L203.662 255.157Z" fill="#37C99E" stroke="#1E2532" stroke-width="0.2" stroke-linejoin="round"></path> <path d="M183.399 290.232L203.663 301.924V278.54L183.399 266.848V290.232Z" fill="#37C99E" stroke="#1E2532" stroke-width="0.2" stroke-linejoin="round"></path> <path d="M223.933 266.848L203.663 278.54V301.924L223.933 290.232V266.848Z" fill="#37C99E" stroke="#1E2532" stroke-width="0.2" stroke-linejoin="round"></path> <path d="M183.398 266.848L203.662 255.156L223.932 266.848L203.662 278.54L183.398 266.848Z" fill="#37C99E" stroke="#1E2532" stroke-width="0.2" stroke-linejoin="round"></path> <path d="M163.129 301.924L183.399 313.616V290.232L163.129 278.54V301.924Z" fill="#37C99E" stroke="#1E2532" stroke-width="0.2" stroke-linejoin="round"></path> <path d="M203.664 278.54L183.4 290.232V313.616L203.664 301.924V278.54Z" fill="#37C99E" stroke="#1E2532" stroke-width="0.2" stroke-linejoin="round"></path> <path d="M163.129 278.54L183.399 266.848L203.663 278.54L183.399 290.232L163.129 278.54Z" fill="#37C99E" stroke="#1E2532" stroke-width="0.2" stroke-linejoin="round"></path> <path d="M142.867 313.617L163.131 325.309V301.925L142.867 290.233V313.617Z" fill="#148C69" stroke="#1E2532" stroke-width="0.2" stroke-linejoin="round"></path> <path d="M183.401 290.233L163.131 301.925V325.309L183.401 313.617V290.233Z" fill="#37C99E" stroke="#1E2532" stroke-width="0.2" stroke-linejoin="round"></path> <path d="M142.867 290.233L163.131 278.541L183.4 290.233L163.131 301.925L142.867 290.233Z" fill="#37C99E" stroke="#1E2532" stroke-width="0.2" stroke-linejoin="round"></path> <path d="M264.465 266.848L284.735 278.54V255.156L264.465 243.47V266.848Z" fill="#37C99E" stroke="#1E2532" stroke-width="0.2" stroke-linejoin="round"></path> <path d="M305 243.47L284.736 255.156V278.54L305 266.848V243.47Z" fill="#148C69" stroke="#1E2532" stroke-width="0.2" stroke-linejoin="round"></path> <path d="M264.466 243.47L284.736 231.778L305 243.47L284.736 255.156L264.466 243.47Z" fill="#37C99E" stroke="#1E2532" stroke-width="0.2" stroke-linejoin="round"></path> <path d="M244.196 278.541L264.466 290.233V266.849L244.196 255.157V278.541Z" fill="#37C99E" stroke="#1E2532" stroke-width="0.2" stroke-linejoin="round"></path> <path d="M284.737 255.157L264.467 266.849V290.233L284.737 278.541V255.157Z" fill="#148C69" stroke="#1E2532" stroke-width="0.2" stroke-linejoin="round"></path> <path d="M244.196 255.157L264.466 243.47L284.736 255.157L264.466 266.849L244.196 255.157Z" fill="#37C99E" stroke="#1E2532" stroke-width="0.2" stroke-linejoin="round"></path> <path d="M223.933 290.232L244.197 301.924V278.54L223.933 266.848V290.232Z" fill="#37C99E" stroke="#1E2532" stroke-width="0.2" stroke-linejoin="round"></path> <path d="M264.467 266.848L244.197 278.54V301.924L264.467 290.232V266.848Z" fill="#148C69" stroke="#1E2532" stroke-width="0.2" stroke-linejoin="round"></path> <path d="M223.933 266.848L244.197 255.156L264.467 266.848L244.197 278.54L223.933 266.848Z" fill="#37C99E" stroke="#1E2532" stroke-width="0.2" stroke-linejoin="round"></path> <path d="M203.662 301.924L223.931 313.616V290.232L203.662 278.54V301.924Z" fill="#37C99E" stroke="#1E2532" stroke-width="0.2" stroke-linejoin="round"></path> <path d="M244.196 278.54L223.932 290.232V313.616L244.196 301.924V278.54Z" fill="#148C69" stroke="#1E2532" stroke-width="0.2" stroke-linejoin="round"></path> <path d="M203.662 278.54L223.931 266.848L244.195 278.54L223.931 290.232L203.662 278.54Z" fill="#37C99E" stroke="#1E2532" stroke-width="0.2" stroke-linejoin="round"></path> <path d="M183.399 313.617L203.663 325.309V301.925L183.399 290.233V313.617Z" fill="#37C99E" stroke="#1E2532" stroke-width="0.2" stroke-linejoin="round"></path> <path d="M223.933 290.233L203.663 301.925V325.309L223.933 313.617V290.233Z" fill="#148C69" stroke="#1E2532" stroke-width="0.2" stroke-linejoin="round"></path> <path d="M183.398 290.232L203.662 278.54L223.932 290.232L203.662 301.924L183.398 290.232Z" fill="#37C99E" stroke="#1E2532" stroke-width="0.2" stroke-linejoin="round"></path> <path d="M163.129 325.308L183.399 337V313.616L163.129 301.924V325.308Z" fill="#148C69" stroke="#1E2532" stroke-width="0.2" stroke-linejoin="round"></path> <path d="M203.664 301.924L183.4 313.616V337L203.664 325.308V301.924Z" fill="#148C69" stroke="#1E2532" stroke-width="0.2" stroke-linejoin="round"></path> <path d="M163.129 301.924L183.399 290.232L203.663 301.924L183.399 313.616L163.129 301.924Z" fill="#37C99E" stroke="#1E2532" stroke-width="0.2" stroke-linejoin="round"></path> <path d="M249.266 228.731L257.714 233.602V223.86L249.266 218.99V228.731Z" fill="white" stroke="#1E2532" stroke-width="0.2" stroke-linejoin="round"></path> <path d="M266.157 218.99L257.715 223.86V233.602L266.157 228.731V218.99Z" fill="#E2E2E2" stroke="#1E2532" stroke-width="0.2" stroke-linejoin="round"></path> <path d="M249.266 218.99L257.714 214.119L266.157 218.99L257.714 223.861L249.266 218.99Z" fill="white" stroke="#1E2532" stroke-width="0.2" stroke-linejoin="round"></path> <path d="M28.1135 185.308L137.602 122.148C139.205 121.223 140.535 119.893 141.459 118.291C142.383 116.689 142.868 114.872 142.865 113.022V10.0986C142.864 9.29805 142.652 8.51182 142.251 7.81885C141.85 7.12588 141.274 6.55055 140.58 6.15064C139.885 5.75073 139.098 5.54032 138.297 5.54053C137.496 5.54073 136.709 5.75154 136.015 6.15181L27.2573 68.8894C25.4355 69.9403 23.9226 71.4517 22.8706 73.2718C21.8185 75.0918 21.2643 77.1564 21.2637 79.2582V181.349C21.2625 182.151 21.4726 182.939 21.8729 183.633C22.2733 184.328 22.8496 184.905 23.544 185.306C24.2384 185.707 25.0264 185.919 25.8285 185.919C26.6307 185.919 27.4188 185.708 28.1135 185.308V185.308Z" fill="#1BB5FF" stroke="#1E2532" stroke-width="0.2" stroke-linejoin="round"></path> <path d="M75.0783 53.5457C76.8707 52.5761 77.6869 54.6065 77.6869 55.04L75.8089 68.2548C75.7981 68.4944 75.7303 68.728 75.6112 68.9363C75.4921 69.1446 75.3251 69.3215 75.124 69.4525L51.5778 83.0324L48.1243 89.0038L41.2003 92.9962L37.7412 91.0228L36.8849 93.7205C36.1543 94.3536 34.2363 93.6407 34.2763 92.2206L34.2363 77.9107C34.2472 77.6718 34.315 77.439 34.4341 77.2317C34.5533 77.0243 34.7203 76.8484 34.9213 76.7187L37.6955 75.1217L41.1661 77.0951L48.0901 73.1027L51.5435 67.1312L75.0783 53.5457Z" fill="#1A49BA" stroke="#1E2532" stroke-width="0.2" stroke-miterlimit="10"></path> <path d="M76.9959 54.6483C77.3784 54.4259 77.6866 54.6084 77.6866 55.0419L77.7266 69.3575C77.7151 69.5968 77.6464 69.83 77.5263 70.0374C77.4061 70.2448 77.238 70.4203 77.0359 70.5495L53.4954 84.135L50.042 90.1065L43.118 94.0989L39.6474 92.1255L36.8732 93.7224C36.4908 93.9449 36.1825 93.7624 36.1825 93.3232L36.1426 79.0133C36.1534 78.7737 36.2212 78.5401 36.3403 78.3318C36.4594 78.1236 36.6264 77.9466 36.8275 77.8156L39.6017 76.2187L43.0723 78.1978L49.9963 74.2054L53.4212 68.2339L76.9959 54.6483Z" fill="#5A85ED" stroke="#1E2532" stroke-width="0.2" stroke-miterlimit="10"></path> <path d="M75.0783 77.552C76.8707 76.5767 77.6869 78.6071 77.6869 79.0463L75.8089 92.2554C75.7981 92.495 75.7303 92.7286 75.6112 92.9369C75.4921 93.1451 75.3251 93.3221 75.124 93.4531L51.5778 107.033L48.1243 113.004L41.2003 116.997L37.7412 115.023L36.8849 117.721C36.1543 118.354 34.2363 117.641 34.2763 116.221L34.2363 101.911C34.2481 101.673 34.3163 101.44 34.4354 101.233C34.5544 101.026 34.721 100.85 34.9213 100.719L37.6955 99.1223L41.1661 101.096L48.0901 97.1033L51.5435 91.1318L75.0783 77.552Z" fill="#1A49BA" stroke="#1E2532" stroke-width="0.2" stroke-miterlimit="10"></path> <path d="M76.9959 78.6477C77.3784 78.4253 77.6866 78.6078 77.6866 79.0469L77.7266 93.3568C77.7146 93.5969 77.6458 93.8306 77.5257 94.0388C77.4056 94.2471 77.2377 94.4238 77.0359 94.5545L53.4954 108.134L50.042 114.106L43.118 118.098L39.6474 116.125L36.8732 117.722C36.4908 117.944 36.1825 117.762 36.1825 117.323L36.1426 103.013C36.1529 102.774 36.2206 102.541 36.3398 102.333C36.459 102.126 36.6262 101.95 36.8275 101.821L39.6017 100.218L43.0723 102.197L49.9963 98.2047L53.4212 92.2332L76.9959 78.6477Z" fill="#5A85ED" stroke="#1E2532" stroke-width="0.2" stroke-miterlimit="10"></path> <path d="M75.0783 101.553C76.8707 100.578 77.6869 102.608 77.6869 103.047L75.8089 116.256C75.7981 116.496 75.7303 116.73 75.6112 116.938C75.4921 117.146 75.3251 117.323 75.124 117.454L51.5778 131.034L48.1243 137.005L41.2003 140.998L37.7412 139.024L36.8849 141.722C36.1543 142.355 34.2363 141.642 34.2763 140.222L34.2363 125.912C34.2481 125.674 34.3163 125.441 34.4354 125.234C34.5544 125.027 34.721 124.851 34.9213 124.72L37.6955 123.123L41.1661 125.108L48.0901 121.116L51.5435 115.144L75.0783 101.553Z" fill="#1A49BA" stroke="#1E2532" stroke-width="0.2" stroke-miterlimit="10"></path> <path d="M76.9959 102.648C77.3784 102.431 77.6866 102.608 77.6866 103.047L77.7266 117.357C77.7146 117.597 77.6458 117.831 77.5257 118.039C77.4056 118.248 77.2377 118.424 77.0359 118.555L53.4954 132.135L50.042 138.106L43.118 142.099L39.6474 140.125L36.8732 141.722C36.4908 141.945 36.1825 141.762 36.1825 141.323L36.1426 127.013C36.1529 126.774 36.2206 126.541 36.3398 126.334C36.459 126.126 36.6262 125.951 36.8275 125.821L39.6017 124.218L43.0723 126.198L49.9963 122.205L53.4212 116.234L76.9959 102.648Z" fill="#5A85ED" stroke="#1E2532" stroke-width="0.2" stroke-miterlimit="10"></path> <path d="M75.0783 125.552C76.8707 124.577 77.6869 126.607 77.6869 127.046L75.8089 140.255C75.7981 140.495 75.7303 140.729 75.6112 140.937C75.4921 141.145 75.3251 141.322 75.124 141.453L51.5778 155.033L48.1243 161.004L41.2003 164.997L37.7412 163.023L36.8849 165.721C36.1543 166.354 34.2363 165.641 34.2763 164.221L34.2363 149.911C34.2481 149.673 34.3163 149.44 34.4354 149.233C34.5544 149.026 34.721 148.85 34.9213 148.719L37.6955 147.122L41.1661 149.101L48.0901 145.109L51.5435 139.137L75.0783 125.552Z" fill="#1A49BA" stroke="#1E2532" stroke-width="0.2" stroke-miterlimit="10"></path> <path d="M76.9959 126.647C77.3784 126.43 77.6866 126.607 77.6866 127.046L77.7266 141.356C77.7146 141.596 77.6458 141.83 77.5257 142.038C77.4056 142.246 77.2377 142.423 77.0359 142.554L53.4954 156.133L50.042 162.105L43.118 166.097L39.6474 164.118L36.8732 165.715C36.4908 165.938 36.1825 165.755 36.1825 165.316L36.1426 151.006C36.1529 150.767 36.2206 150.534 36.3398 150.327C36.459 150.119 36.6262 149.943 36.8275 149.814L39.6017 148.211L43.0723 150.19L49.9963 146.198L53.4212 140.227L76.9959 126.647Z" fill="#5A85ED" stroke="#1E2532" stroke-width="0.2" stroke-miterlimit="10"></path> <path d="M195.55 157.77L191.657 174.093L183.506 169.394L175.463 174.065L167.306 169.365L175.406 164.723L167.254 160.023L195.55 157.77Z" fill="#FFDA54" stroke="#1E2532" stroke-width="0.2" stroke-linejoin="round"></path> <path d="M167.306 169.365L167.254 177.185L175.309 181.776L175.463 174.065L167.306 169.365Z" fill="#F2BE00" stroke="#1E2532" stroke-width="0.2" stroke-linejoin="round"></path> <path d="M183.505 169.394V177.157L175.308 181.776L175.462 174.065L183.505 169.394Z" fill="#F2BE00" stroke="#1E2532" stroke-width="0.2" stroke-linejoin="round"></path> <path d="M191.656 174.094V181.776L183.505 177.157V169.394L191.656 174.094Z" fill="#F2BE00" stroke="#1E2532" stroke-width="0.2" stroke-linejoin="round"></path> <path d="M195.55 157.77V165.932L191.657 181.776V174.093L195.55 157.77Z" fill="#F2BE00" stroke="#1E2532" stroke-width="0.2" stroke-linejoin="round"></path> <path d="M167.254 160.022L167.3 167.197L169.104 168.332L175.406 164.722L167.254 160.022Z" fill="#F2BE00" stroke="#1E2532" stroke-width="0.2" stroke-linejoin="round"></path> <path d="M89.458 157.771L93.351 174.094L101.497 169.394L109.545 174.065L117.696 169.366L109.602 164.723L117.748 160.023L89.458 157.771Z" fill="#FFDA54" stroke="#1E2532" stroke-width="0.2" stroke-linejoin="round"></path> <path d="M117.698 169.365L117.749 177.184L109.701 181.776L109.546 174.065L117.698 169.365Z" fill="#F2BE00" stroke="#1E2532" stroke-width="0.2" stroke-linejoin="round"></path> <path d="M101.497 169.394V177.156L109.7 181.776L109.546 174.065L101.497 169.394Z" fill="#F2BE00" stroke="#1E2532" stroke-width="0.2" stroke-linejoin="round"></path> <path d="M93.3516 174.094V181.776L101.497 177.156V169.394L93.3516 174.094Z" fill="#F2BE00" stroke="#1E2532" stroke-width="0.2" stroke-linejoin="round"></path> <path d="M89.458 157.771V165.932L93.351 181.776V174.094L89.458 157.771Z" fill="#F2BE00" stroke="#1E2532" stroke-width="0.2" stroke-linejoin="round"></path> <path d="M117.748 160.022L117.702 167.197L115.898 168.332L109.602 164.722L117.748 160.022Z" fill="white" stroke="#1E2532" stroke-width="0.2" stroke-linejoin="round"></path> <path d="M107.497 215.096L115.642 219.796L87.3584 222.043L91.2457 205.719L99.3912 210.425L107.445 205.748L115.591 210.448L107.497 215.096Z" fill="#FFDA54" stroke="#1E2532" stroke-width="0.2" stroke-linejoin="round"></path> <path d="M115.641 219.795V226.805L87.3574 229.063V222.042L115.641 219.795Z" fill="#F2BE00" stroke="#1E2532" stroke-width="0.2" stroke-linejoin="round"></path> <path d="M115.591 210.447L115.642 217.411L113.61 218.626L107.497 215.095L115.591 210.447Z" fill="#F2BE00" stroke="#1E2532" stroke-width="0.2" stroke-linejoin="round"></path> <path d="M177.586 214.525L169.435 219.225L197.725 221.472L193.837 205.149L185.686 209.854L177.638 205.177L169.486 209.877L177.586 214.525Z" fill="#FFDA54" stroke="#1E2532" stroke-width="0.2" stroke-linejoin="round"></path> <path d="M169.435 219.224V226.234L197.725 228.492V221.471L169.435 219.224Z" fill="#F2BE00" stroke="#1E2532" stroke-width="0.2" stroke-linejoin="round"></path> <path d="M169.486 209.876L169.435 216.84L171.467 218.055L177.586 214.525L169.486 209.876Z" fill="#F2BE00" stroke="#1E2532" stroke-width="0.2" stroke-linejoin="round"></path> <path d="M169.303 191.397C165.171 183.669 154.673 178.125 142.327 178.034C129.98 177.943 119.403 183.327 115.156 190.992H113.226L113.169 198.373C113.089 209.717 126.001 219.007 142.018 219.127C158.036 219.247 171.09 210.15 171.176 198.806L171.233 191.426L169.303 191.397Z" fill="#E2E2E2" stroke="#1E2532" stroke-width="0.2" stroke-linejoin="round"></path> <path d="M171.212 189.942C171.298 178.6 158.382 169.307 142.364 169.187C126.347 169.067 113.293 178.165 113.207 189.507C113.122 200.85 126.038 210.142 142.056 210.262C158.073 210.382 171.127 201.285 171.212 189.942Z" fill="white" stroke="#1E2532" stroke-width="0.2" stroke-linejoin="round"></path> <path d="M96.731 41.9682L129.593 23.0157C133.258 20.7686 136.106 24.4301 136.106 26.626L133.874 79.4796C133.88 80.5194 133.61 81.5421 133.091 82.4438C132.573 83.3454 131.825 84.0937 130.923 84.6126L99.1855 105.35C97.2847 106.451 93.3403 104.922 93.3403 101.358V47.837C93.3402 46.6474 93.6534 45.4788 94.2486 44.4486C94.8438 43.4184 95.7 42.5629 96.731 41.9682V41.9682Z" fill="#E2E2E2" stroke="#1E2532" stroke-width="0.2" stroke-linejoin="round"></path> <path d="M98.9686 43.1104L131.825 24.1579C132.259 23.9076 132.751 23.7759 133.252 23.7759C133.753 23.7759 134.245 23.9076 134.679 24.1579C135.113 24.4082 135.473 24.7682 135.724 25.2017C135.974 25.6352 136.106 26.1269 136.106 26.6275V80.6218C136.113 81.6611 135.844 82.6837 135.327 83.5854C134.809 84.4871 134.062 85.2357 133.161 85.7549L99.8534 104.97C99.4195 105.22 98.9274 105.352 98.4264 105.352C97.9254 105.352 97.4332 105.22 96.9993 104.97C96.5655 104.719 96.2052 104.359 95.9547 103.926C95.7042 103.492 95.5723 103.001 95.5723 102.5V48.9792C95.5733 47.7892 95.8876 46.6205 96.4838 45.5903C97.08 44.5602 97.9369 43.7049 98.9686 43.1104V43.1104Z" fill="white" stroke="#1E2532" stroke-width="0.2" stroke-linejoin="round"></path> <path d="M136.106 91.8269V115.211L95.5723 138.595V115.211L136.106 91.8269Z" fill="#F9B8C4" stroke="#1E2532" stroke-width="0.2" stroke-linejoin="round"></path> <path d="M156.374 111.876L149.622 14C149.622 10.4867 156.38 2.19961 163.23 5.82699L265.223 64.6521C267.046 65.7063 268.559 67.2219 269.609 69.0463C270.66 70.8706 271.21 72.9391 271.206 75.0437V177.135C271.206 185.006 260.64 187.059 257.597 185.302L162.368 122.257C160.545 121.205 159.031 119.692 157.978 117.869C156.926 116.047 156.373 113.98 156.374 111.876V111.876Z" fill="#E2E2E2" stroke="#1E2532" stroke-width="0.2" stroke-linejoin="round"></path> <path d="M149.622 116.09V13.9986C149.621 13.1976 149.832 12.4106 150.233 11.7168C150.634 11.0231 151.21 10.4469 151.904 10.0464C152.599 9.64577 153.386 9.43486 154.188 9.43481C154.99 9.43477 155.777 9.6456 156.471 10.0461L258.476 68.8883C260.298 69.9392 261.811 71.4506 262.863 73.2706C263.915 75.0907 264.469 77.1553 264.47 79.2571V181.348C264.47 182.149 264.259 182.936 263.859 183.63C263.458 184.324 262.881 184.9 262.187 185.301C261.493 185.701 260.705 185.912 259.904 185.912C259.102 185.912 258.314 185.701 257.62 185.301L155.609 126.464C153.788 125.412 152.276 123.9 151.225 122.079C150.174 120.257 149.621 118.192 149.622 116.09V116.09Z" fill="#1BB5FF" stroke="#1E2532" stroke-width="0.2" stroke-linejoin="round"></path> <path d="M149.622 107.427L264.47 173.678V181.36C264.47 182.161 264.259 182.948 263.859 183.642C263.458 184.336 262.881 184.912 262.187 185.312C261.493 185.713 260.705 185.924 259.904 185.924C259.102 185.924 258.314 185.713 257.62 185.313L155.609 126.465C153.788 125.413 152.276 123.9 151.225 122.079C150.174 120.258 149.621 118.192 149.622 116.09V107.427Z" fill="#633F60" stroke="#1E2532" stroke-width="0.2" stroke-linejoin="round"></path> <path d="M190.149 110.381V113.232C190.15 113.833 190.309 114.422 190.609 114.941C190.91 115.461 191.342 115.892 191.862 116.192L201.092 121.519C201.352 121.67 201.648 121.749 201.948 121.749C202.249 121.749 202.545 121.67 202.805 121.519C203.065 121.369 203.281 121.153 203.432 120.892C203.582 120.632 203.661 120.337 203.661 120.037V117.185C203.661 116.584 203.503 115.993 203.202 115.473C202.902 114.952 202.469 114.52 201.948 114.219L192.724 108.898C192.463 108.746 192.167 108.666 191.866 108.665C191.564 108.665 191.268 108.743 191.007 108.894C190.745 109.044 190.529 109.261 190.378 109.522C190.227 109.783 190.149 110.079 190.149 110.381Z" fill="#FFDA54" stroke="#1E2532" stroke-width="0.2" stroke-linejoin="round"></path> <path d="M223.93 129.87V132.722C223.93 133.323 224.088 133.914 224.388 134.434C224.689 134.955 225.122 135.387 225.643 135.688L234.873 141.015C235.133 141.165 235.429 141.244 235.729 141.244C236.03 141.244 236.325 141.165 236.586 141.014C236.846 140.864 237.062 140.648 237.212 140.388C237.363 140.127 237.442 139.832 237.441 139.532V136.68C237.441 136.08 237.282 135.491 236.982 134.971C236.681 134.452 236.249 134.02 235.729 133.72L226.499 128.393C226.239 128.243 225.944 128.164 225.644 128.164C225.344 128.164 225.049 128.242 224.788 128.392C224.528 128.542 224.312 128.757 224.161 129.016C224.011 129.276 223.931 129.57 223.93 129.87Z" fill="#FFDA54" stroke="#1E2532" stroke-width="0.2" stroke-linejoin="round"></path> <path d="M157.974 88.8337V91.6854C157.974 92.2865 158.132 92.877 158.432 93.3977C158.733 93.9183 159.166 94.3507 159.687 94.6512L168.911 99.9725C169.171 100.123 169.467 100.202 169.767 100.202C170.068 100.202 170.364 100.123 170.624 99.9722C170.884 99.8219 171.1 99.6057 171.251 99.3455C171.401 99.0852 171.48 98.79 171.48 98.4896V95.6379C171.48 95.0368 171.322 94.4463 171.021 93.9256C170.721 93.405 170.288 92.9726 169.767 92.6721L160.543 87.3508C160.282 87.2006 159.987 87.1215 159.686 87.1216C159.386 87.1216 159.09 87.2008 158.83 87.3511C158.57 87.5014 158.353 87.7175 158.203 87.9778C158.053 88.2381 157.974 88.5333 157.974 88.8337Z" fill="#FFDA54" stroke="#1E2532" stroke-width="0.2" stroke-linejoin="round"></path> <path d="M253.704 74.5521C252.699 75.3905 252.214 77.0901 252.562 78.8981C252.911 80.7061 254.041 82.0806 255.291 82.4684L255.348 82.7479L256.427 82.5312C258.094 82.2004 259.053 80.0274 258.584 77.6833C258.116 75.3392 256.381 73.6909 254.72 74.0502L253.635 74.2669L253.704 74.5521Z" fill="#CA2829" stroke="#1E2532" stroke-width="0.2" stroke-linejoin="round"></path> <path d="M255.354 82.7597C257.017 82.4245 257.982 80.2527 257.509 77.9091C257.037 75.5654 255.306 73.9372 253.643 74.2724C251.981 74.6076 251.016 76.7793 251.488 79.123C251.961 81.4667 253.692 83.0949 255.354 82.7597Z" fill="#FE595A" stroke="#1E2532" stroke-width="0.2" stroke-linejoin="round"></path> <path d="M243.005 69.1239C242.001 69.9623 241.515 71.6619 241.864 73.4699C242.212 75.2779 243.336 76.6524 244.586 77.0402L244.643 77.3197L245.728 77.103C247.389 76.7722 248.354 74.5991 247.88 72.255C247.406 69.9109 245.677 68.2627 244.016 68.622L242.931 68.8387L243.005 69.1239Z" fill="#37C99E" stroke="#1E2532" stroke-width="0.2" stroke-linejoin="round"></path> <path d="M244.656 77.3324C246.318 76.9972 247.283 74.8255 246.81 72.4818C246.338 70.1381 244.607 68.5099 242.944 68.8452C241.282 69.1804 240.317 71.3521 240.79 73.6958C241.262 76.0395 242.993 77.6676 244.656 77.3324Z" fill="#31E7B6" stroke="#1E2532" stroke-width="0.2" stroke-linejoin="round"></path> <path d="M178.827 44.5627C185.363 48.3326 186.91 53.6881 186.99 53.9733C187.195 54.0931 191.071 56.4429 191.06 61.017L162.559 44.4771C162.621 44.2775 163.82 40.4847 170.402 44.3003L170.641 44.4429C170.744 44.2433 172.291 40.7927 178.827 44.5627Z" fill="white" stroke="#1E2532" stroke-width="0.2" stroke-miterlimit="10"></path> <path d="M236.079 83.3015C242.621 87.0714 244.162 92.4269 244.242 92.7121C244.447 92.8319 248.329 95.1874 248.317 99.7558L219.816 83.2159C219.879 83.0163 221.072 79.2235 227.654 83.0391L227.899 83.1817C227.979 82.9821 229.537 79.5315 236.079 83.3015Z" fill="white" stroke="#1E2532" stroke-width="0.2" stroke-miterlimit="10"></path> <path d="M167.141 111.357C168.764 112.311 170.113 113.666 171.06 115.293C172.007 116.919 172.519 118.761 172.547 120.642L156.375 111.311C156.375 111.157 156.375 108.197 159.081 109.771C159.88 110.257 160.544 110.934 161.013 111.742C161.481 112.55 161.74 113.463 161.764 114.397C161.77 113.975 161.884 108.328 167.141 111.357Z" fill="#37C99E" stroke="#1E2532" stroke-width="0.2" stroke-linejoin="round"></path> <path d="M247.505 149.849C256.564 155.079 255.674 163.537 255.628 163.965L255.565 168.527L235.244 156.818C235.244 156.59 235.244 152.227 239.36 154.537C239.331 154.041 238.446 144.624 247.505 149.849Z" fill="#37C99E" stroke="#1E2532" stroke-width="0.2" stroke-miterlimit="10"></path> <path d="M183.598 284.334C187.977 284.334 191.527 280.788 191.527 276.412C191.527 272.037 187.977 268.49 183.598 268.49C179.219 268.49 175.669 272.037 175.669 276.412C175.669 280.788 179.219 284.334 183.598 284.334Z" fill="#FFDA54" stroke="#1E2532" stroke-width="0.2" stroke-linejoin="round"></path> <path d="M224.012 213.384C230.534 213.384 235.822 208.101 235.822 201.584C235.822 195.066 230.534 189.783 224.012 189.783C217.489 189.783 212.202 195.066 212.202 201.584C212.202 208.101 217.489 213.384 224.012 213.384Z" fill="#1BB5FF" stroke="#1E2532" stroke-width="0.2" stroke-linejoin="round"></path> <path d="M167.615 146.308L169.077 147.147V142.105L167.615 141.266V146.308Z" fill="#0099FF" stroke="#1E2532" stroke-width="0.2" stroke-linejoin="round"></path> <path d="M170.531 141.266L169.076 142.105V147.147L170.531 146.308V141.266Z" fill="#0099FF" stroke="#1E2532" stroke-width="0.2" stroke-linejoin="round"></path> <path d="M167.616 141.266L169.078 140.427L170.533 141.266" fill="#0099FF"></path> <path d="M167.616 141.266L169.078 140.427L170.533 141.266" stroke="#1E2532" stroke-width="0.2" stroke-linejoin="round"></path> <path d="M172.274 143.627L173.73 144.465V139.429L172.274 138.585V143.627Z" fill="#0099FF" stroke="#1E2532" stroke-width="0.2" stroke-linejoin="round"></path> <path d="M175.186 138.585L173.73 139.429V144.465L175.186 143.627V138.585Z" fill="#0099FF" stroke="#1E2532" stroke-width="0.2" stroke-linejoin="round"></path> <path d="M172.274 138.584L173.73 137.745L175.186 138.584" fill="#0099FF"></path> <path d="M172.274 138.584L173.73 137.745L175.186 138.584" stroke="#1E2532" stroke-width="0.2" stroke-linejoin="round"></path> <path d="M164.418 139.924L171.399 143.945L178.38 139.924L171.399 135.897L164.418 139.924Z" fill="white" stroke="#1E2532" stroke-width="0.2" stroke-linejoin="round"></path> <path d="M164.418 131.872L171.399 135.898V143.946L164.418 139.925V131.872Z" fill="white" stroke="#1E2532" stroke-width="0.2" stroke-linejoin="round"></path> <path d="M178.38 139.925V131.872L171.399 135.898V143.946L178.38 139.925Z" fill="white" stroke="#1E2532" stroke-width="0.2" stroke-linejoin="round"></path> <path d="M164.418 131.871L171.399 127.844L178.38 131.871L171.399 135.898L164.418 131.871Z" fill="white" stroke="#1E2532" stroke-width="0.2" stroke-linejoin="round"></path> <path d="M170.488 95.9341L181.025 102.014L170.488 108.088L159.956 102.014L170.488 95.9341Z" fill="#0099FF" stroke="#1E2532" stroke-width="0.2" stroke-linejoin="round"></path> <path d="M170.487 140.501L181.024 134.426V102.014L170.487 108.088V140.501Z" fill="#0099FF" stroke="#1E2532" stroke-width="0.2" stroke-linejoin="round"></path> <path d="M159.956 134.426L170.487 140.501V108.088L159.956 102.014V134.426Z" fill="#0F7FC9" stroke="#1E2532" stroke-width="0.2" stroke-linejoin="round"></path> <path d="M168.388 109.188L161.909 112.924V120.396L168.388 116.66V109.188Z" fill="#0099FF" stroke="#1E2532" stroke-width="0.2" stroke-linejoin="round"></path> <path d="M155.43 116.66L161.908 120.396V112.924L155.43 109.188V116.66Z" fill="#0099FF" stroke="#1E2532" stroke-width="0.2" stroke-linejoin="round"></path> <path d="M161.965 105.539L155.429 109.189L161.908 112.925L168.387 109.189L161.965 105.539Z" fill="#0099FF" stroke="#1E2532" stroke-width="0.2" stroke-linejoin="round"></path> <path d="M124.188 198.961L132.774 203.911L141.359 198.961L132.774 194.01L124.188 198.961Z" fill="#0099FF" stroke="#1E2532" stroke-width="0.2" stroke-linejoin="round"></path> <path d="M124.188 189.054L132.774 194.01V203.911L124.188 198.961V189.054Z" fill="#0099FF" stroke="#1E2532" stroke-width="0.2" stroke-linejoin="round"></path> <path d="M141.358 198.961V189.054L132.773 194.01V203.911L141.358 198.961Z" fill="#0099FF" stroke="#1E2532" stroke-width="0.2" stroke-linejoin="round"></path> <path d="M124.188 189.054L132.774 184.104L141.359 189.054L132.774 194.011L124.188 189.054Z" fill="#0099FF" stroke="#1E2532" stroke-width="0.2" stroke-linejoin="round"></path> <path d="M124.188 189.054L132.774 194.01L141.359 189.054L132.774 184.103L124.188 189.054Z" fill="#0099FF" stroke="#1E2532" stroke-width="0.2" stroke-linejoin="round"></path> <path d="M124.188 179.153L132.774 184.104V194.01L124.188 189.054V179.153Z" fill="#0099FF" stroke="#1E2532" stroke-width="0.2" stroke-linejoin="round"></path> <path d="M141.358 189.054V179.153L132.773 184.104V194.01L141.358 189.054Z" fill="#0099FF" stroke="#1E2532" stroke-width="0.2" stroke-linejoin="round"></path> <path d="M124.188 179.153L132.774 174.203L141.359 179.153L132.774 184.104L124.188 179.153Z" fill="#0099FF" stroke="#1E2532" stroke-width="0.2" stroke-linejoin="round"></path> <path d="M145.652 186.577L154.232 191.534L162.817 186.577L154.232 181.627L145.652 186.577Z" fill="#0099FF" stroke="#1E2532" stroke-width="0.2" stroke-linejoin="round"></path> <path d="M145.652 176.676L154.232 181.627V191.534L145.652 186.577V176.676Z" fill="#0F7FC9" stroke="#1E2532" stroke-width="0.2" stroke-linejoin="round"></path> <path d="M162.817 186.577V176.676L154.232 181.627V191.534L162.817 186.577Z" fill="#0099FF" stroke="#1E2532" stroke-width="0.2" stroke-linejoin="round"></path> <path d="M145.652 176.677L154.232 171.726L162.817 176.677L154.232 181.627L145.652 176.677Z" fill="#0099FF" stroke="#1E2532" stroke-width="0.2" stroke-linejoin="round"></path> <path d="M145.652 176.676L154.232 181.627L162.817 176.676L154.232 171.726L145.652 176.676Z" fill="#0099FF" stroke="#1E2532" stroke-width="0.2" stroke-linejoin="round"></path> <path d="M145.652 166.77L154.232 171.726V181.627L145.652 176.676V166.77Z" fill="#0F7FC9" stroke="#1E2532" stroke-width="0.2" stroke-linejoin="round"></path> <path d="M162.817 176.676V166.77L154.232 171.726V181.627L162.817 176.676Z" fill="#0099FF" stroke="#1E2532" stroke-width="0.2" stroke-linejoin="round"></path> <path d="M145.652 166.77L154.232 161.819L162.817 166.77L154.232 171.726L145.652 166.77Z" fill="#0099FF" stroke="#1E2532" stroke-width="0.2" stroke-linejoin="round"></path> <path d="M132.775 169.246L149.94 179.152L167.11 169.246L149.94 159.344L132.775 169.246Z" fill="#0099FF" stroke="#1E2532" stroke-width="0.2" stroke-linejoin="round"></path> <path d="M149.94 179.152V159.344L132.775 149.437V169.245L149.94 179.152Z" fill="#0099FF" stroke="#1E2532" stroke-width="0.2" stroke-linejoin="round"></path> <path d="M167.11 169.245V149.437L149.94 159.344V179.152L167.11 169.245Z" fill="#0099FF" stroke="#1E2532" stroke-width="0.2" stroke-linejoin="round"></path> <path d="M132.775 149.437L149.94 139.536L167.11 149.437L149.94 159.344L132.775 149.437Z" fill="#0099FF" stroke="#1E2532" stroke-width="0.2" stroke-linejoin="round"></path> <path d="M132.775 149.438L149.94 159.345L167.11 149.438L149.94 139.537L132.775 149.438Z" fill="#0099FF" stroke="#1E2532" stroke-width="0.2" stroke-linejoin="round"></path> <path d="M149.94 159.344V139.536L132.775 129.629V149.437L149.94 159.344Z" fill="#0099FF" stroke="#1E2532" stroke-width="0.2" stroke-linejoin="round"></path> <path d="M167.11 149.437V129.629L149.94 139.536V159.344L167.11 149.437Z" fill="#0099FF" stroke="#1E2532" stroke-width="0.2" stroke-linejoin="round"></path> <path d="M132.775 129.63L149.94 119.729L167.11 129.63L149.94 139.536L132.775 129.63Z" fill="#0099FF" stroke="#1E2532" stroke-width="0.2" stroke-linejoin="round"></path> <path d="M115.604 179.154L132.774 189.055L149.938 179.154L132.774 169.247L115.604 179.154Z" fill="#0099FF" stroke="#1E2532" stroke-width="0.2" stroke-linejoin="round"></path> <path d="M132.774 189.054V169.246L115.604 159.345V179.153L132.774 189.054Z" fill="#0F7FC9" stroke="#1E2532" stroke-width="0.2" stroke-linejoin="round"></path> <path d="M149.937 179.153V159.345L132.772 169.246V189.054L149.937 179.153Z" fill="#0099FF" stroke="#1E2532" stroke-width="0.2" stroke-linejoin="round"></path> <path d="M115.603 159.345L132.773 149.438L149.938 159.345L132.773 169.246L115.603 159.345Z" fill="#0099FF" stroke="#1E2532" stroke-width="0.2" stroke-linejoin="round"></path> <path d="M115.604 159.345L132.774 169.246L149.938 159.345L132.774 149.438L115.604 159.345Z" fill="#0099FF" stroke="#1E2532" stroke-width="0.2" stroke-linejoin="round"></path> <path d="M132.774 169.245V149.437L115.604 139.536V159.344L132.774 169.245Z" fill="#0F7FC9" stroke="#1E2532" stroke-width="0.2" stroke-linejoin="round"></path> <path d="M149.937 159.344V139.536L132.772 149.437V169.245L149.937 159.344Z" fill="#0099FF" stroke="#1E2532" stroke-width="0.2" stroke-linejoin="round"></path> <path d="M115.603 139.537L132.773 129.63L149.938 139.537L132.773 149.438L115.603 139.537Z" fill="#0099FF" stroke="#1E2532" stroke-width="0.2" stroke-linejoin="round"></path> <path d="M132.775 129.63L149.94 139.537L167.11 129.63L149.94 119.729L132.775 129.63Z" fill="#0099FF" stroke="#1E2532" stroke-width="0.2" stroke-linejoin="round"></path> <path d="M149.94 139.536V119.728L132.775 109.827V129.629L149.94 139.536Z" fill="#0099FF" stroke="#1E2532" stroke-width="0.2" stroke-linejoin="round"></path> <path d="M167.11 129.629V109.827L149.94 119.728V139.536L167.11 129.629Z" fill="#0099FF" stroke="#1E2532" stroke-width="0.2" stroke-linejoin="round"></path> <path d="M132.775 109.828L149.94 99.9209L167.11 109.828L149.94 119.729L132.775 109.828Z" fill="#0099FF" stroke="#1E2532" stroke-width="0.2" stroke-linejoin="round"></path> <path d="M115.604 139.537L132.774 149.438L149.938 139.537L132.774 129.63L115.604 139.537Z" fill="#0099FF" stroke="#1E2532" stroke-width="0.2" stroke-linejoin="round"></path> <path d="M132.774 149.437V129.629L115.604 119.728V139.536L132.774 149.437Z" fill="#0F7FC9" stroke="#1E2532" stroke-width="0.2" stroke-linejoin="round"></path> <path d="M149.937 139.536V119.728L132.772 129.629V149.437L149.937 139.536Z" fill="#0099FF" stroke="#1E2532" stroke-width="0.2" stroke-linejoin="round"></path> <path d="M115.603 119.729L132.773 109.827L149.938 119.729L132.773 129.63L115.603 119.729Z" fill="#0099FF" stroke="#1E2532" stroke-width="0.2" stroke-linejoin="round"></path> <path d="M139.213 123.441V108.584L126.335 101.158V116.015L139.213 123.441Z" fill="#0099FF" stroke="#1E2532" stroke-width="0.2" stroke-linejoin="round"></path> <path d="M156.377 113.54V98.6826L139.212 108.584V123.441L156.377 113.54Z" fill="#0099FF" stroke="#1E2532" stroke-width="0.2" stroke-linejoin="round"></path> <path d="M126.335 101.158L143.506 91.2568L156.378 98.6827L139.213 108.584L126.335 101.158Z" fill="#0099FF" stroke="#1E2532" stroke-width="0.2" stroke-linejoin="round"></path> <path d="M127.327 132.613L120.849 136.355V143.826L127.327 140.09V132.613Z" fill="#0099FF" stroke="#1E2532" stroke-width="0.2" stroke-linejoin="round"></path> <path d="M114.369 140.09L120.848 143.826V136.355L114.369 132.613V140.09Z" fill="#0099FF" stroke="#1E2532" stroke-width="0.2" stroke-linejoin="round"></path> <path d="M120.905 128.969L114.369 132.613L120.848 136.354L127.327 132.613L120.905 128.969Z" fill="#0099FF" stroke="#1E2532" stroke-width="0.2" stroke-linejoin="round"></path> <path d="M143.505 98.0958L145.651 99.3391V91.9076L143.505 90.6699V98.0958Z" fill="white" stroke="#1E2532" stroke-width="0.2" stroke-linejoin="round"></path> <path d="M147.799 90.6699L145.652 91.9076V99.3391L147.799 98.0958V90.6699Z" fill="white" stroke="#1E2532" stroke-width="0.2" stroke-linejoin="round"></path> <path d="M147.797 90.6698L145.651 89.4321L143.504 90.6698L145.651 91.9074L147.797 90.6698Z" fill="white" stroke="#1E2532" stroke-width="0.2" stroke-linejoin="round"></path> <path d="M134.92 103.051L137.067 104.289V96.8573L134.92 95.6196V103.051Z" fill="white" stroke="#1E2532" stroke-width="0.2" stroke-linejoin="round"></path> <path d="M139.214 95.6196L137.067 96.8573V104.289L139.214 103.051V95.6196Z" fill="white" stroke="#1E2532" stroke-width="0.2" stroke-linejoin="round"></path> <path d="M139.213 95.62L137.067 94.3823L134.92 95.62L137.067 96.8576L139.213 95.62Z" fill="white" stroke="#1E2532" stroke-width="0.2" stroke-linejoin="round"></path> <path d="M111.676 178.453L113.131 179.291V174.255L111.676 173.411V178.453Z" fill="#0099FF" stroke="#1E2532" stroke-width="0.2" stroke-linejoin="round"></path> <path d="M114.593 173.411L113.132 174.255V179.291L114.593 178.453V173.411Z" fill="#0099FF" stroke="#1E2532" stroke-width="0.2" stroke-linejoin="round"></path> <path d="M111.677 173.41L113.132 172.571L114.594 173.41" fill="#0099FF"></path> <path d="M111.677 173.41L113.132 172.571L114.594 173.41" stroke="#1E2532" stroke-width="0.2" stroke-linejoin="round"></path> <path d="M116.335 175.777L117.791 176.616V171.574L116.335 170.736V175.777Z" fill="#0099FF" stroke="#1E2532" stroke-width="0.2" stroke-linejoin="round"></path> <path d="M119.247 170.736L117.792 171.574V176.616L119.247 175.777V170.736Z" fill="#0099FF" stroke="#1E2532" stroke-width="0.2" stroke-linejoin="round"></path> <path d="M116.335 170.735L117.791 169.891L119.247 170.735" fill="#0099FF"></path> <path d="M116.335 170.735L117.791 169.891L119.247 170.735" stroke="#1E2532" stroke-width="0.2" stroke-linejoin="round"></path> <path d="M108.479 172.069L115.46 176.095L122.441 172.069L115.46 168.042L108.479 172.069Z" fill="white" stroke="#1E2532" stroke-width="0.2" stroke-linejoin="round"></path> <path d="M108.479 164.016L115.46 168.043V176.096L108.479 172.07V164.016Z" fill="white" stroke="#1E2532" stroke-width="0.2" stroke-linejoin="round"></path> <path d="M122.442 172.07V164.016L115.46 168.043V176.096L122.442 172.07Z" fill="white" stroke="#1E2532" stroke-width="0.2" stroke-linejoin="round"></path> <path d="M108.479 164.016L115.46 159.989L122.441 164.016L115.46 168.043L108.479 164.016Z" fill="white" stroke="#1E2532" stroke-width="0.2" stroke-linejoin="round"></path> <path d="M115.245 127.458L125.777 133.538L115.245 139.612L104.708 133.538L115.245 127.458Z" fill="#0099FF" stroke="#1E2532" stroke-width="0.2" stroke-linejoin="round"></path> <path d="M115.246 172.025L125.778 165.95V133.538L115.246 139.612V172.025Z" fill="#0099FF" stroke="#1E2532" stroke-width="0.2" stroke-linejoin="round"></path> <path d="M104.708 165.95L115.245 172.025V139.612L104.708 133.538V165.95Z" fill="#0099FF" stroke="#1E2532" stroke-width="0.2" stroke-linejoin="round"></path> <path d="M130.086 114.226L133.956 116.439V111.996L130.086 109.789V114.226Z" fill="white" stroke="#1E2532" stroke-width="0.2" stroke-linejoin="round"></path> <path d="M135.224 115.708L133.957 116.438V111.995L135.224 111.265V115.708Z" fill="white" stroke="#1E2532" stroke-width="0.2" stroke-linejoin="round"></path> <path d="M130.085 109.788L131.37 109.046L135.223 111.265L133.956 111.995L130.085 109.788Z" fill="white" stroke="#1E2532" stroke-width="0.2" stroke-linejoin="round"></path> <path d="M154.116 171.874V137.089L141.239 129.663V164.448L154.116 171.874Z" fill="#ED889B" stroke="#1E2532" stroke-width="0.2" stroke-linejoin="round"></path> <path d="M171.28 161.967V127.182L154.115 137.089V171.874L171.28 161.967Z" fill="#F9B8C4" stroke="#1E2532" stroke-width="0.2" stroke-linejoin="round"></path> <path d="M141.238 129.664L158.408 119.757L171.28 127.183L154.116 137.09L141.238 129.664Z" fill="#F9B8C4" stroke="#1E2532" stroke-width="0.2" stroke-linejoin="round"></path> <path d="M149.824 130.913L151.936 132.134V129.693L149.824 128.472V130.913Z" fill="#FE595A" stroke="#1E2532" stroke-width="0.2" stroke-linejoin="round"></path> <path d="M154.053 128.472V130.913L151.935 132.134V129.693L154.053 128.472Z" fill="#FE595A" stroke="#1E2532" stroke-width="0.2" stroke-linejoin="round"></path> <path d="M149.823 128.472L151.935 127.251L154.053 128.472L151.935 129.692L149.823 128.472Z" fill="#FE595A" stroke="#1E2532" stroke-width="0.2" stroke-linejoin="round"></path> <path d="M145.56 164.672L147.678 165.892V138.083L145.56 136.868V164.672Z" fill="white" stroke="#1E2532" stroke-width="0.2" stroke-linejoin="round"></path> <path d="M149.791 136.868V164.672L147.679 165.892V138.083L149.791 136.868Z" fill="white" stroke="#1E2532" stroke-width="0.2" stroke-linejoin="round"></path> <path d="M145.56 136.867L147.677 135.646L149.789 136.867L147.677 138.081L145.56 136.867Z" fill="white" stroke="#1E2532" stroke-width="0.2" stroke-linejoin="round"></path> <path d="M154.053 128.336L156.171 129.556V127.115L154.053 125.895V128.336Z" fill="white" stroke="#1E2532" stroke-width="0.2" stroke-linejoin="round"></path> <path d="M158.283 125.895V128.336L156.171 129.556V127.115L158.283 125.895Z" fill="white" stroke="#1E2532" stroke-width="0.2" stroke-linejoin="round"></path> <path d="M154.054 125.893L156.171 124.672L158.283 125.893L156.171 127.113L154.054 125.893Z" fill="white" stroke="#1E2532" stroke-width="0.2" stroke-linejoin="round"></path> <path d="M158.283 125.895L160.401 127.115V124.674L158.283 123.454V125.895Z" fill="#37C99E" stroke="#1E2532" stroke-width="0.2" stroke-linejoin="round"></path> <path d="M162.513 123.454V125.895L160.401 127.115V124.674L162.513 123.454Z" fill="#37C99E" stroke="#1E2532" stroke-width="0.2" stroke-linejoin="round"></path> <path d="M158.283 123.452L160.4 122.232L162.512 123.452L160.4 124.673L158.283 123.452Z" fill="#37C99E" stroke="#1E2532" stroke-width="0.2" stroke-linejoin="round"></path> </svg> 